<svg xmlns="http://www.w3.org/2000/svg" viewBox="0 0 668.8 323.78"><defs><style>.cls-1{fill:#bbd642;}.cls-2{fill:#231f20;}.cls-3{fill:#fff;}.cls-4{fill:none;}.cls-5{fill:#f68936;}.cls-6{fill:#00568d;}</style></defs><g id="Layer_2" data-name="Layer 2"><g id="Layer_1-2" data-name="Layer 1"><path class="cls-1" d="M293.42,258.22A212.84,212.84,0,0,0,264,238.32c-6.38-3.38-12.35-11.56-21.1-30.08-2.53-5.29-8.57-39.62-7.79-47.39s6.64-25.81,9.77-31C261.12,102.56,267,84,266.15,77.63c-3.81-28.16-12.35-32.85-21.91-43.58C229.37,17.33,195.76,0,170,.39c0,0-6.86-.88-11.75,0-11.31,2-16.33,3.18-23.68,5.37s-20,7.48-33.45,17.53c-1.77,1.3-21.3,15.45-26.88,31.26C71.12,63.3,73,84.74,76,96c3.6,13.44,11.36,22,20.63,37,7,11.46,6.51,15.84,6.25,27.48-.05,3.18-5.15,23.11-8.54,26.29S67.84,211.23,61.67,214,38,232.75,34,233.53,1.15,249.86.14,254.45s3.59,17.11,5.18,19.69,13.94,10.37,19.9,6S38,266.19,40.36,262.39s13.75-17.71,18.52-21.7S83.78,213.81,87,213s15.32-10.37,20.89-11,15.73-.39,17.92.21,8.36,9.35,8.36,13.34-4.37,21.31-6.56,25.5-11.36,22.48-14.33,26.46-22.11,32.07-22.11,36.06-.6,13.72,4.19,15.1,26.47,7.58,29.07,3.89,2.79-10.63,4-19.8,4.76-27.07,5.36-31.47,5-20.71,7.37-22.9,10.55-22.48,12.14-24.66S158,217,162.6,217s7.38,5.16,7.38,5.16,10.55,32.46,10.94,36.26,3,23.08,3,28.86-8,27.48.21,32.25,28,3,30.84,1.2,9.17-12.14,9-15.34-9.95-16.91-12.53-20.06-12.73-25.14-13.54-30.89-4.77-18.13-2.58-32.07c.31-1.95,3.39-11.15,5.36-14.33s7.43-1.61,11.36-1c11.54,1.77,33.74,28.55,35.74,34.93s6.46,34.55,10.84,40.33,16.93,1.59,19.92,1.2S304,266.79,293.42,258.22ZM231.16,95.81c-.6,3.57-8.67,14.17-11.2,17.61s-12,9.87-15.39,11.51-14.77,5.81-17.77,6.25-16,2.11-19,2.11-18.21-4.35-22.09-6.12-13.6-8.23-16.59-10.76S118,101.05,115.72,97.14s-3.13-16-2.84-18.65S120.51,61.92,123,60.12,140.67,47,143.2,46.37,159,42.2,162,42.05s11.36-1.65,11.36-1.65c7.92.6,23.16,5.84,29.12,8.21s19.72,14.8,22,16.72,7,13,7.61,16S231.74,92.22,231.16,95.81Z"/><path class="cls-1" d="M206.65,88.33c0,4.48-1,6.13-1.77,8.52s-4.95,5.84-7.63,7.92-9.41,3.88-12.53,5.37-9.72,1.79-13.6,1.79-10.6-2.84-15.24-4.76-9.69-6.44-12.08-9.43-3.73-10.89-3.73-14.33,6-10.44,8.65-12.09a47,47,0,0,1,13.6-5.23,85.5,85.5,0,0,1,11.33-.76c9.12,0,12.27,1.8,17.79,4.48a37.14,37.14,0,0,1,11.93,9.43C205.92,82.21,206.65,83.85,206.65,88.33Z"/><path class="cls-2" d="M206.65,88.33c0,4.48-1,6.13-1.77,8.52s-4.95,5.84-7.63,7.92-9.41,3.88-12.53,5.37-9.72,1.79-13.6,1.79-10.6-2.84-15.24-4.76a27,27,0,0,1-2.5-1.28A9,9,0,0,0,141.61,93a39.46,39.46,0,0,1-1.54-9.56c0-3.44,6-10.44,8.65-12.09a47,47,0,0,1,13.6-5.23,85.5,85.5,0,0,1,11.33-.76c9.12,0,12.27,1.8,17.79,4.48a37.14,37.14,0,0,1,11.93,9.43C205.92,82.21,206.65,83.85,206.65,88.33Z"/><path class="cls-3" d="M232.05,81.33c-.6-3-5.37-14-7.61-16s-16-14.32-22-16.72S181.28,41,173.36,40.4c0,0-8.36,1.49-11.36,1.65s-16.25,3.72-18.8,4.32-17.61,12-20.16,13.75-9.85,15.68-10.16,18.37.6,14.77,2.84,18.65,10.47,16.75,13.44,19.27,12.68,9,16.59,10.76,19.09,6.12,22.09,6.12,16-1.64,19-2.11,14.33-4.61,17.77-6.25,12.84-8.07,15.39-11.51,10.6-14,11.2-17.61S232.65,84.3,232.05,81.33ZM204.88,96.85c-.75,2.4-4.95,5.84-7.63,7.92s-9.41,3.88-12.53,5.37-9.72,1.79-13.6,1.79-10.6-2.84-15.24-4.76-9.69-6.44-12.08-9.43-3.73-10.89-3.73-14.33,6-10.44,8.65-12.09a47,47,0,0,1,13.6-5.23,85.5,85.5,0,0,1,11.33-.76c9.12,0,12.27,1.8,17.79,4.48a37.14,37.14,0,0,1,11.93,9.43c2.55,3,3.28,4.61,3.28,9.09S205.61,94.46,204.88,96.85Z"/><path class="cls-4" d="M206.65,88.33c0,4.48-1,6.13-1.77,8.52s-4.95,5.84-7.63,7.92-9.41,3.88-12.53,5.37-9.72,1.79-13.6,1.79-10.6-2.84-15.24-4.76-9.69-6.44-12.08-9.43-3.73-10.89-3.73-14.33,6-10.44,8.65-12.09a47,47,0,0,1,13.6-5.23,85.5,85.5,0,0,1,11.33-.76c9.12,0,12.27,1.8,17.79,4.48a37.14,37.14,0,0,1,11.93,9.43C205.92,82.21,206.65,83.85,206.65,88.33Z"/><path class="cls-3" d="M206.65,77.29a12,12,0,1,1-12-12A12,12,0,0,1,206.65,77.29Z"/><path class="cls-3" d="M153.38,105.89a38.85,38.85,0,0,1-9.58-8.15A14.42,14.42,0,0,1,141.61,93a9,9,0,0,1,11.77,12.92Z"/><path class="cls-3" d="M153.38,105.89a10.73,10.73,0,0,1-.88,1.09,9,9,0,1,1-10.89-14,14.42,14.42,0,0,0,2.19,4.77A38.85,38.85,0,0,0,153.38,105.89Z"/><path class="cls-5" d="M650.31,131.41c-9.26-13-8.9-12.52-37.61-32.56a851.37,851.37,0,0,1-72-56.41c-.7-.52-8-5.67-16.05-2.75-5.45,2-11.55,7.68-10.55,14.22.66,4.25,4.29,7,6,8.25,8.34,6.21,19.33,15.63,34.63,29.81q-15.3-.21-31-.23-17.42,0-34.39.23c-27.16-.73-47.23-.42-53.2.57a31.45,31.45,0,0,0-6,1.72,18.64,18.64,0,0,0-8.37,5.85,14.24,14.24,0,0,0-2.75,5.85,12.24,12.24,0,0,0,1.14,8.82c1.7,2.84,4.29,4,6.42,5a19.55,19.55,0,0,0,6.2,1.72l59.38-.23c-59.86,45-103.11,78.29-108.45,83.35a24.36,24.36,0,0,0-5.51,8,19.83,19.83,0,0,0-1.26,8.59,15.09,15.09,0,0,0,2.87,8.6,14.8,14.8,0,0,0,6.88,4.7,22,22,0,0,0,12,.92c7.58-1.49,12.56-6.41,14.11-7.91,8.3-8,27.51-23.45,54.23-44.37a64.51,64.51,0,0,0-.23,16.05,67.4,67.4,0,0,0,6.53,22,89.15,89.15,0,0,0,19,26.37,88.44,88.44,0,0,0,21.21,16.28c8,4.33,15.31,6.54,28.55,10.55,1.2.37,2.95.88,5.28,1.38s5.46,1,13.29,1.37c3.53.16,6.61.3,10.09.23a106.38,106.38,0,0,0,23.74-3.32A108.28,108.28,0,0,0,622.1,263a91.27,91.27,0,0,0,18.69-14,96.12,96.12,0,0,0,15.59-20.29c3.44-5.64,6.78-11.22,9.29-19.38a83.09,83.09,0,0,0,3-16.51C669.58,179.47,666.7,154.44,650.31,131.41ZM629,180.71c-1.15,16.83-10.24,27.83-13.3,31.41a59.55,59.55,0,0,1-26.83,17.66,66.21,66.21,0,0,1-41.27.92,63.77,63.77,0,0,1-28.2-17.89c-4-4.48-12.53-14.38-14.22-29.58-2.1-18.85,7.81-32.75,10.78-36.92,13.6-19.08,34.12-23.34,38.75-24.3a66.93,66.93,0,0,1,18.11-1.15,61.89,61.89,0,0,1,26.14,7.34A57.75,57.75,0,0,1,623,152.73,53.24,53.24,0,0,1,629,180.71Z"/><path class="cls-3" d="M623,152.73a57.75,57.75,0,0,0-24.08-24.53,61.89,61.89,0,0,0-26.14-7.34A66.93,66.93,0,0,0,554.69,122c-4.63,1-25.15,5.22-38.75,24.3-3,4.17-12.88,18.07-10.78,36.92,1.69,15.2,10.24,25.1,14.22,29.58a63.77,63.77,0,0,0,28.2,17.89,66.21,66.21,0,0,0,41.27-.92,59.55,59.55,0,0,0,26.83-17.66c3.06-3.58,12.15-14.58,13.3-31.41A53.24,53.24,0,0,0,623,152.73Zm-35.31,54.35c-16,8.54-31.79,2.55-34.17,1.6-3-1.19-18-7.2-22.93-23.16a34.52,34.52,0,0,1,.69-22.24c4.24-10.95,13.05-16.09,16.51-18.11a44.19,44.19,0,0,1,13.53-5,48.26,48.26,0,0,1,12.08-1,42.39,42.39,0,0,1,23.69,12.2c2.63,2.73,11.73,12.18,11.23,25.91C607.66,196.06,589.65,206,587.71,207.08Z"/><path class="cls-6" d="M608.34,177.27c-.68,18.79-18.69,28.77-20.63,29.81-16,8.54-31.79,2.55-34.17,1.6-3-1.19-18-7.2-22.93-23.16a34.52,34.52,0,0,1,.69-22.24c4.24-10.95,13.05-16.09,16.51-18.11a44.19,44.19,0,0,1,13.53-5,48.26,48.26,0,0,1,12.08-1,42.39,42.39,0,0,1,23.69,12.2C599.74,154.09,608.84,163.54,608.34,177.27Z"/></g></g></svg>