<svg xmlns="http://www.w3.org/2000/svg" viewBox="0 0 349.15 402.17"><defs><style>.cls-1,.cls-3{fill:#231f20;}.cls-1{stroke:#231f20;stroke-miterlimit:10;stroke-width:0.93px;}.cls-2{fill:#bbd642;}.cls-4{fill:#fff;}.cls-5{fill:none;}</style></defs><g id="Layer_2" data-name="Layer 2"><g id="Layer_1-2" data-name="Layer 1"><rect class="cls-1" x="0.46" y="0.46" width="348.22" height="401.24"/><path class="cls-2" d="M315.88,296.2a212.84,212.84,0,0,0-29.46-19.9c-6.38-3.38-12.34-11.56-21.1-30.08-2.52-5.29-8.57-39.62-7.79-47.39s6.65-25.81,9.77-31.05c16.28-27.24,22.17-45.79,21.31-52.17C284.81,87.45,276.26,82.76,266.7,72,251.83,55.3,218.23,38,192.44,38.37c0,0-6.85-.88-11.75,0A188.42,188.42,0,0,0,157,43.74c-7.37,2.19-20,7.48-33.44,17.53-1.77,1.3-21.31,15.45-26.89,31.26-3.1,8.75-1.19,30.19,1.78,41.42,3.59,13.44,11.35,22,20.63,37,7,11.46,6.51,15.84,6.25,27.48,0,3.18-5.16,23.11-8.55,26.29S90.3,249.21,84.13,252s-23.68,18.73-27.66,19.51S23.62,287.84,22.6,292.43s3.6,17.11,5.19,19.69,13.93,10.37,19.9,6,12.76-13.94,15.13-17.74,13.76-17.71,18.52-21.7,24.9-26.88,28.08-27.66,15.32-10.37,20.89-11,15.74-.39,17.92.21,8.37,9.35,8.37,13.34-4.38,21.3-6.57,25.5-11.36,22.48-14.32,26.46-22.12,32.07-22.12,36.06-.6,13.72,4.19,15.1,26.47,7.58,29.07,3.88,2.79-10.62,4-19.79,4.77-27.07,5.37-31.47,5-20.71,7.37-22.9,10.55-22.48,12.14-24.66,4.76-6.78,9.35-6.78,7.37,5.16,7.37,5.16,10.55,32.46,10.94,36.26,3,23.08,3,28.86-8,27.48.2,32.25,28.06,3,30.85,1.2,9.16-12.14,9-15.34-9.95-16.91-12.53-20.06-12.74-25.14-13.55-30.89-4.77-18.13-2.58-32.07c.32-1.95,3.39-11.15,5.37-14.33s7.42-1.61,11.36-1c11.54,1.77,33.73,28.55,35.73,34.93s6.46,34.54,10.84,40.33S298,321.89,301,321.5,326.43,304.77,315.88,296.2ZM253.63,133.79c-.6,3.57-8.68,14.17-11.2,17.61s-12,9.87-15.4,11.51-14.77,5.81-17.76,6.25-16,2.11-19,2.11-18.2-4.35-22.09-6.12-13.59-8.23-16.59-10.76-11.2-15.36-13.44-19.27-3.13-16-2.84-18.65S143,99.9,145.5,98.1,163.13,85,165.66,84.35,181.5,80.18,184.47,80s11.36-1.64,11.36-1.64c7.91.6,23.15,5.84,29.12,8.21s19.72,14.79,22,16.72,7,13,7.6,16S254.2,130.19,253.63,133.79Z"/><path class="cls-2" d="M207.12,126.31c0,4.48-1.05,6.12-1.78,8.52s-4.94,5.84-7.63,7.92-9.4,3.88-12.53,5.37-9.71,1.79-13.59,1.79-10.61-2.84-15.24-4.76-9.69-6.44-12.09-9.43-3.72-10.89-3.72-14.33,6-10.45,8.64-12.09a47.15,47.15,0,0,1,13.6-5.23,85.5,85.5,0,0,1,11.33-.76c9.12,0,12.27,1.8,17.79,4.48a36.92,36.92,0,0,1,11.93,9.43C206.39,120.19,207.12,121.83,207.12,126.31Z"/><path class="cls-3" d="M207.12,126.31c0,4.48-1.05,6.12-1.78,8.52s-4.94,5.84-7.63,7.92-9.4,3.88-12.53,5.37-9.71,1.79-13.59,1.79-10.61-2.84-15.24-4.76a26.92,26.92,0,0,1-2.5-1.28A9,9,0,0,0,142.07,131a39.38,39.38,0,0,1-1.53-9.56c0-3.44,6-10.45,8.64-12.09a47.15,47.15,0,0,1,13.6-5.23,85.5,85.5,0,0,1,11.33-.76c9.12,0,12.27,1.8,17.79,4.48a36.92,36.92,0,0,1,11.93,9.43C206.39,120.19,207.12,121.83,207.12,126.31Z"/><path class="cls-4" d="M254.51,119.31c-.6-3-5.36-14-7.6-16s-16-14.32-22-16.72S203.74,79,195.83,78.38c0,0-8.37,1.49-11.36,1.64s-16.26,3.73-18.81,4.33-17.61,12-20.16,13.75-9.85,15.68-10.16,18.37.6,14.77,2.84,18.65,10.47,16.75,13.44,19.27,12.69,9,16.59,10.76,19.1,6.12,22.09,6.12,16-1.64,19-2.11,14.32-4.61,17.76-6.25,12.84-8.07,15.4-11.51,10.6-14,11.2-17.61S255.11,122.28,254.51,119.31Zm-27.17,15.52c-.75,2.4-4.94,5.84-7.63,7.92s-9.4,3.88-12.53,5.37-9.71,1.79-13.59,1.79-10.61-2.84-15.24-4.76-9.69-6.44-12.09-9.43-3.72-10.89-3.72-14.33,6-10.45,8.64-12.09a47.15,47.15,0,0,1,13.6-5.23,85.5,85.5,0,0,1,11.33-.76c9.12,0,12.27,1.8,17.79,4.48a36.92,36.92,0,0,1,11.93,9.43c2.56,3,3.29,4.61,3.29,9.09S228.07,132.43,227.34,134.83Z"/><path class="cls-5" d="M207.12,126.31c0,4.48-1.05,6.12-1.78,8.52s-4.94,5.84-7.63,7.92-9.4,3.88-12.53,5.37-9.71,1.79-13.59,1.79-10.61-2.84-15.24-4.76-9.69-6.44-12.09-9.43-3.72-10.89-3.72-14.33,6-10.45,8.64-12.09a47.15,47.15,0,0,1,13.6-5.23,85.5,85.5,0,0,1,11.33-.76c9.12,0,12.27,1.8,17.79,4.48a36.92,36.92,0,0,1,11.93,9.43C206.39,120.19,207.12,121.83,207.12,126.31Z"/><path class="cls-4" d="M229.12,115.27a12,12,0,1,1-12-12A12,12,0,0,1,229.12,115.27Z"/><path class="cls-4" d="M153.85,143.87a38.91,38.91,0,0,1-9.59-8.15,14.62,14.62,0,0,1-2.19-4.77,9,9,0,0,1,11.78,12.92Z"/><path class="cls-4" d="M162.9,132.45a12.56,12.56,0,0,1,1.08-.9,9,9,0,1,1,10.55,14.54,8.85,8.85,0,0,1-2.56,1.3,14.51,14.51,0,0,0-1.23-5.1A38.8,38.8,0,0,0,162.9,132.45Z"/></g></g></svg>