<svg xmlns="http://www.w3.org/2000/svg" viewBox="0 0 291.88 238.69"><defs><style>.cls-1{fill:#f68936;}.cls-2{fill:#fff;}.cls-3{fill:#00568d;}</style></defs><g id="Layer_2" data-name="Layer 2"><g id="Layer_1-2" data-name="Layer 1"><path class="cls-1" d="M273.39,92.61c-9.26-13-8.9-12.52-37.61-32.56a851.37,851.37,0,0,1-72-56.41c-.7-.52-7.95-5.67-16.05-2.75-5.45,2-11.55,7.68-10.55,14.22.66,4.25,4.29,7,6,8.25,8.34,6.21,19.33,15.63,34.63,29.81q-15.3-.21-31-.23-17.42,0-34.39.23c-27.16-.73-47.23-.42-53.2.57a31.45,31.45,0,0,0-6,1.72,18.64,18.64,0,0,0-8.37,5.85,14.24,14.24,0,0,0-2.75,5.85A12.24,12.24,0,0,0,43.28,76c1.7,2.84,4.29,4,6.42,5a19.55,19.55,0,0,0,6.2,1.72l59.38-.23c-59.86,45-103.11,78.29-108.45,83.35a24.36,24.36,0,0,0-5.51,8,19.83,19.83,0,0,0-1.26,8.59,15.09,15.09,0,0,0,2.87,8.6,14.8,14.8,0,0,0,6.88,4.7,22,22,0,0,0,12,.92c7.58-1.49,12.56-6.41,14.11-7.91,8.3-8,27.51-23.45,54.23-44.37a64.51,64.51,0,0,0-.23,16,67.4,67.4,0,0,0,6.53,22,89.15,89.15,0,0,0,19,26.37,88.44,88.44,0,0,0,21.21,16.28c8,4.33,15.31,6.54,28.55,10.55,1.2.37,2.95.88,5.28,1.38s5.46,1,13.29,1.37c3.53.16,6.61.3,10.09.23a106.38,106.38,0,0,0,23.74-3.32,108.28,108.28,0,0,0,27.51-11.12,91.27,91.27,0,0,0,18.69-14A96.12,96.12,0,0,0,279.46,190c3.44-5.64,6.78-11.22,9.29-19.38a83.09,83.09,0,0,0,3-16.51C292.66,140.67,289.78,115.64,273.39,92.61Zm-21.33,49.3c-1.15,16.83-10.24,27.83-13.3,31.41A59.55,59.55,0,0,1,211.93,191a66.21,66.21,0,0,1-41.27.92A63.77,63.77,0,0,1,142.46,174c-4-4.48-12.53-14.38-14.22-29.58-2.1-18.85,7.81-32.75,10.78-36.92,13.6-19.08,34.12-23.34,38.75-24.3a66.93,66.93,0,0,1,18.11-1.15A61.89,61.89,0,0,1,222,89.4a57.75,57.75,0,0,1,24.08,24.53A53.24,53.24,0,0,1,252.06,141.91Z"/><path class="cls-2" d="M246.1,113.93A57.75,57.75,0,0,0,222,89.4a61.89,61.89,0,0,0-26.14-7.34,66.93,66.93,0,0,0-18.11,1.15c-4.63,1-25.15,5.22-38.75,24.3-3,4.17-12.88,18.07-10.78,36.92,1.69,15.2,10.24,25.1,14.22,29.58a63.77,63.77,0,0,0,28.2,17.89,66.21,66.21,0,0,0,41.27-.92,59.55,59.55,0,0,0,26.83-17.66c3.06-3.58,12.15-14.58,13.3-31.41A53.24,53.24,0,0,0,246.1,113.93Zm-35.31,54.35c-16,8.54-31.79,2.55-34.17,1.6-3-1.19-18-7.2-22.93-23.16a34.52,34.52,0,0,1,.69-22.24c4.24-11,13.05-16.09,16.51-18.11a44.19,44.19,0,0,1,13.53-5.05,48.26,48.26,0,0,1,12.08-1,42.39,42.39,0,0,1,23.69,12.2c2.63,2.73,11.73,12.18,11.23,25.91C230.74,157.26,212.73,167.24,210.79,168.28Z"/><path class="cls-3" d="M231.42,138.47c-.68,18.79-18.69,28.77-20.63,29.81-16,8.54-31.79,2.55-34.17,1.6-3-1.19-18-7.2-22.93-23.16a34.52,34.52,0,0,1,.69-22.24c4.24-11,13.05-16.09,16.51-18.11a44.19,44.19,0,0,1,13.53-5.05,48.26,48.26,0,0,1,12.08-1,42.39,42.39,0,0,1,23.69,12.2C222.82,115.29,231.92,124.74,231.42,138.47Z"/></g></g></svg>