<svg xmlns="http://www.w3.org/2000/svg" viewBox="0 0 352.66 242.28"><defs><style>.cls-1{fill:#fff;}.cls-2,.cls-3{fill:#231f20;}.cls-3,.cls-4{stroke:#231f20;stroke-miterlimit:10;}.cls-3{stroke-width:0.6px;}.cls-4{fill:none;stroke-width:8.28px;}</style></defs><g id="Layer_2" data-name="Layer 2"><g id="Layer_1-2" data-name="Layer 1"><path class="cls-1" d="M352.66,237.64H27.9a18,18,0,0,1-18-18v-131A42.48,42.48,0,0,1,52.41,46.14h34a28.34,28.34,0,0,0,25.4-15.76A43.66,43.66,0,0,1,151,6.09H280.09a43.68,43.68,0,0,1,39.15,24.29,28.34,28.34,0,0,0,25.4,15.76h8"/><path class="cls-2" d="M352.66,238.27l-27.56-.16L311.32,238l-13.77,0-55.12.11-27.56.06c-9.19,0-18.38,0-27.56.15l-27.56.33c-9.19.13-18.38.18-27.56.44l-27.56.65-13.78.32-13.78.45-27.56.91L35.73,242l-6.89.26-.86,0H26.92a17.44,17.44,0,0,1-2.17-.13,22.36,22.36,0,0,1-4.27-.89A23.13,23.13,0,0,1,7.12,230.3a23.44,23.44,0,0,1-2.73-8.54c-.06-.73-.13-1.54-.17-2.21l-.06-1.73L4,214.38l-1-27.56-2-55.12c-.31-9.19-.47-18.37-.71-27.56L0,90.36l0-1.72.05-2.12L.12,84.4l0-1.07c0-.35.09-.7.13-1l.57-4.23c.31-1.39.63-2.78,1-4.16A54.43,54.43,0,0,1,9,58.42,51.84,51.84,0,0,1,20.83,46.06,52.38,52.38,0,0,1,36,38c1.35-.49,2.77-.8,4.16-1.19A33.72,33.72,0,0,1,44.38,36l2.14-.33c.71-.13,1.43-.13,2.15-.19l2.16-.13,1.07-.06.54,0h.43c4.59,0,9.19-.05,13.78,0l6.89.07,6.89.19,3.44.1,1.73,0,.85,0H87a19.94,19.94,0,0,0,4.35-.43,18.92,18.92,0,0,0,8-3.83,21.88,21.88,0,0,0,3.21-3.31,9.2,9.2,0,0,0,.69-1l.33-.49.16-.24L104,26c.69-1.2,1.42-2.38,2.2-3.51A51.1,51.1,0,0,1,147.18.13c1.31,0,2.64,0,3.91,0l3.45.17,6.88.33c4.6.26,9.19.35,13.78.5s9.19.32,13.78.38,9.19.14,13.78.07c9.19,0,18.38-.42,27.56-.7L244.1.46,251,.24c2.3-.08,4.6-.16,6.89-.16,4.6,0,9.19-.13,13.78,0l6.89.07,1.75,0,1.95.12a38.86,38.86,0,0,1,3.89.42A47.8,47.8,0,0,1,300.9,5.34a48.88,48.88,0,0,1,12.37,9.06A44.87,44.87,0,0,1,322,26.8l.8,1.71c.23.49.4.92.63,1.37a28,28,0,0,0,1.45,2.62,25.15,25.15,0,0,0,3.8,4.71,26.78,26.78,0,0,0,10.7,6.32,30.45,30.45,0,0,0,3.13.78c1.08.2,2.13.32,3.3.43,2.3.23,4.6.52,6.89.78v1.25l-6.89.24a31.24,31.24,0,0,1-7.07-.38,29.11,29.11,0,0,1-13.06-5.78,30.43,30.43,0,0,1-5.13-5.14,29.84,29.84,0,0,1-2.07-3l-1.72-3a41.17,41.17,0,0,0-31.65-20.3,31.23,31.23,0,0,0-3.21-.17h-1.6l-1.71,0-6.89.14-13.78.3c-9.18.18-18.37.42-27.56.55l-27.56.29L189,10.66l-13.78,0H151.09c-1.05,0-2.06,0-3.09.12a39.08,39.08,0,0,0-22.41,9.26,40,40,0,0,0-8,9.32c-.55.87-1,1.77-1.52,2.69l-.9,1.66a20,20,0,0,1-1,1.71,33.19,33.19,0,0,1-5.08,6.13A33.23,33.23,0,0,1,95.3,49.3a32.1,32.1,0,0,1-7.85,1.15l-1,0H85.6l-1.73,0-3.44,0-27.56-.18A42.21,42.21,0,0,0,40.54,52a37.87,37.87,0,0,0-11.1,5.63,37.43,37.43,0,0,0-8.81,8.86,40.24,40.24,0,0,0-5.51,11.24l-.82,3-.5,3.11c0,.26-.09.52-.12.78l0,.79-.09,1.58-.1,1.58,0,1.72-.12,13.78L13,131.7l-.5,55.12-.25,27.56,0,3.44,0,1.73.06,1.51a15.63,15.63,0,0,0,1.6,5.76,15.86,15.86,0,0,0,8.85,7.83,14.21,14.21,0,0,0,2.94.73,8.61,8.61,0,0,0,1.52.15l.77.05h.86l6.89.06,13.78.11,27.56.24,55.12.47,55.12.46c9.18.11,18.37.1,27.56.12l27.56.06,55.12.11,13.77,0,13.78-.07,27.56-.16Z"/><path class="cls-2" d="M119.06,73.58a41.06,41.06,0,0,0,10.33-7.46,32.88,32.88,0,0,0,4-4.82l.89-1.28c.29-.41.59-.84.91-1.34l1-1.42,1-1.36c.67-.93,1.45-1.77,2.2-2.64s1.58-1.66,2.45-2.41a40.89,40.89,0,0,1,5.46-4.24,39.9,39.9,0,0,1,6.13-3.25,42.82,42.82,0,0,1,6.64-2.14,36,36,0,0,1,6.93-.95c1.21-.07,2.27-.08,3.36-.1l3.26,0c4.35-.05,8.71-.09,13.06-.09L212.79,40l26.12.1,13.07.14,6.53.07a41.88,41.88,0,0,1,19.69,5,40,40,0,0,1,5.67,3.74c.92.67,1.73,1.46,2.59,2.19s1.64,1.55,2.37,2.4A43.31,43.31,0,0,1,293,59a36.72,36.72,0,0,0,3.9,5,47.41,47.41,0,0,0,10,8.1l-.37.67a45.33,45.33,0,0,1-10.92-7.45,39.36,39.36,0,0,1-4.5-5,41.14,41.14,0,0,0-4.2-4.73,40.09,40.09,0,0,0-10.26-7.15,38.3,38.3,0,0,0-11.88-3.49,42.58,42.58,0,0,0-6.2-.29L252,44.8,239,45.11l-26.12.44-26.12.26q-6.53.07-13.06.08h-3.27c-1.08,0-2.2,0-3.17,0a37.84,37.84,0,0,0-6,.65,38.48,38.48,0,0,0-21,11.9l-1.05,1.15-1,1.21-1,1.27-1.1,1.32a32.5,32.5,0,0,1-4.9,4.7,35.71,35.71,0,0,1-11.8,6.18Z"/><circle class="cls-3" cx="51.69" cy="82.53" r="17.43"/><circle class="cls-4" cx="213.45" cy="141.53" r="78.96"/><circle class="cls-2" cx="213.45" cy="142.17" r="68.85"/><path class="cls-1" d="M212.71,191.75a48.15,48.15,0,0,1-19-3.16,49.82,49.82,0,0,1-16.39-10.53,49,49,0,0,1-11.07-16.16,49.39,49.39,0,0,1,0-38.52,49,49,0,0,1,11.07-16.16,49.82,49.82,0,0,1,16.39-10.53,48.15,48.15,0,0,1,19-3.16v1a49.59,49.59,0,0,0-18.17,4.24,47.93,47.93,0,0,0,0,87.74,49.59,49.59,0,0,0,18.17,4.24Z"/><path class="cls-1" d="M217,106.65c.15,1.68.28,2,.42,1.91l.41,0,.83,0,1.67.07,3.3.45c1.09.22,2.17.49,3.26.73s2.12.69,3.19,1a36.59,36.59,0,0,1,11.53,7,33.69,33.69,0,0,1,8.14,11,32.82,32.82,0,0,1,3,13.57,35.47,35.47,0,0,1-2.8,13.63A34.27,34.27,0,0,1,242,167.45a33.53,33.53,0,0,1-11.66,7.18A31.66,31.66,0,0,1,217,176.41a35.62,35.62,0,0,0,23-10.92,33.61,33.61,0,0,0,9.15-23,35.24,35.24,0,0,0-8.78-23.39,31.84,31.84,0,0,0-10.48-7.75c-1-.4-2.05-.84-3.09-1.2s-2.12-.65-3.2-.89-2.18-.39-3.28-.53l-1.67-.09-.83,0-.41,0c-.14-.08-.29.2-.42,1.87Z"/></g></g></svg>