<svg xmlns="http://www.w3.org/2000/svg" viewBox="0 0 283.29 190.99"><defs><style>.cls-1{fill:#231f20;}.cls-1,.cls-2{stroke:#231f20;stroke-miterlimit:10;}.cls-2{fill:none;}</style></defs><g id="Layer_2" data-name="Layer 2"><g id="Layer_1-2" data-name="Layer 1"><path class="cls-1" d="M71.53,110.42c16,7.8,29.77,13.38,40,17.2,12.21,4.56,53.24,19.62,84.81,19,1.84,0,12.08-.28,12.08-.36s-5.74,0-10.49,0l8.83.08,41.93-3.13L279,147.71a133.26,133.26,0,0,0,3-17,140.07,140.07,0,0,0-2.6-45.48,143.22,143.22,0,0,0-12.07-33.7,91.57,91.57,0,0,0-22.64-22.24,115.9,115.9,0,0,0-14.13-8A210.79,210.79,0,0,0,200.94,8.92a6,6,0,0,0-.2-3.51c-1.48-3.84-7-4.6-8.25-4.78A15.81,15.81,0,0,0,189.2.55,9.6,9.6,0,0,0,186,1.2a7.18,7.18,0,0,0-3.32,3.29,129.21,129.21,0,0,0-40.36,3c-8.36,2-14.65,3.49-22.09,8C107.52,23.15,100.67,34,95.27,42.78A128.51,128.51,0,0,0,85.41,63,252.07,252.07,0,0,0,71.53,110.42Z"/><path class="cls-1" d="M71.53,110.42,34.27,129.23,1,147.11c-.54,1.87-.92,4.17.23,5.28,1.59,1.52,5.13-.11,7.34-.69,7.85-2,16.17,4.79,21.56,8.94,5.16,4,22.44,17.3,36.91,23.62,18.74,8.18,36.4,6.22,42.19,5.5,4.65-.57,13.91-2.12,35.32-12.61A328.07,328.07,0,0,0,194.24,147"/><path class="cls-2" d="M201.73,9.07c-.28.19-6.86,4.58-13.37,1.38a12.65,12.65,0,0,1-5.73-6"/></g></g></svg>