<svg xmlns="http://www.w3.org/2000/svg" xmlns:xlink="http://www.w3.org/1999/xlink" viewBox="0 0 599.51 498.82"><defs><style>.cls-1{fill:url(#radial-gradient);}.cls-2{fill:url(#radial-gradient-2);}.cls-3{fill:#fff;}.cls-4{fill:#6e3f41;}.cls-5{fill:none;stroke:#fff;stroke-miterlimit:10;stroke-width:2px;stroke-dasharray:12 30 0;}.cls-6{fill:#2e3151;}</style><radialGradient id="radial-gradient" cx="297.15" cy="247.41" r="273.41" gradientUnits="userSpaceOnUse"><stop offset="0" stop-color="#f9ed32"/><stop offset="1" stop-color="#c97929"/></radialGradient><radialGradient id="radial-gradient-2" cx="310.56" cy="378.97" fy="286.0709695336214" r="192" gradientUnits="userSpaceOnUse"><stop offset="0.03" stop-color="#fff"/><stop offset="0.26" stop-color="#aaabd3"/><stop offset="0.47" stop-color="#6769b0"/><stop offset="0.62" stop-color="#3e419a"/><stop offset="0.7" stop-color="#2e3192"/></radialGradient></defs><g id="Layer_2" data-name="Layer 2"><g id="Layer_1-2" data-name="Layer 1"><polygon class="cls-1" points="594.3 494.82 15.63 494.82 0 494.82 0 0 594.3 0 594.3 494.82"/><rect class="cls-2" y="273.18" width="599.1" height="225.63"/><circle class="cls-3" cx="308.87" cy="252.34" r="17.86"/><path class="cls-4" d="M135.14,85a51,51,0,0,0-2.69,4.42,52,52,0,0,0-3-4.92Q132.33,84.61,135.14,85Z"/><path class="cls-4" d="M135.14,85a51,51,0,0,0-2.69,4.42,52,52,0,0,0-3-4.92Q132.33,84.61,135.14,85Z"/><path class="cls-4" d="M322.19,58.21a25.26,25.26,0,0,0-1.35,2.22A23.93,23.93,0,0,0,319.32,58C320.29,58,321.25,58.09,322.19,58.21Z"/><path class="cls-4" d="M322.19,58.21a25.26,25.26,0,0,0-1.35,2.22A23.93,23.93,0,0,0,319.32,58C320.29,58,321.25,58.09,322.19,58.21Z"/><path class="cls-4" d="M517.88,85.68a38.39,38.39,0,0,0-2.14,3.52,41.73,41.73,0,0,0-2.42-3.92C514.86,85.35,516.39,85.48,517.88,85.68Z"/><path class="cls-4" d="M517.88,85.68a38.39,38.39,0,0,0-2.14,3.52,41.73,41.73,0,0,0-2.42-3.92C514.86,85.35,516.39,85.48,517.88,85.68Z"/><ellipse class="cls-3" cx="308.87" cy="297.87" rx="9.9" ry="20.48"/><line class="cls-5" x1="7.51" y1="297.87" x2="588.78" y2="297.87"/><polyline class="cls-5" points="599.1 306.2 594.3 306.2 544.71 306.2 380.93 306.2 317.92 306.2 299.83 306.2 165.53 306.2 85.66 306.2 36.1 306.2"/><line class="cls-5" y1="318.36" x2="558.9" y2="318.36"/><polyline class="cls-5" points="599.1 324.55 594.3 324.55 551.95 324.55 355.95 324.55 286.73 324.55 242.17 324.55 171.95 324.55 70.03 324.55 32.89 324.55"/><line class="cls-5" x1="15.47" y1="312.28" x2="596.74" y2="312.28"/><line class="cls-5" y1="284.04" x2="574.73" y2="284.04"/><polyline class="cls-5" points="599.1 280.75 594.3 280.75 538.77 280.75 408.84 280.75 314.31 280.75 303.44 280.75 148.81 280.75 102.24 280.75 31.55 280.75"/><line class="cls-5" x1="18.24" y1="290.95" x2="599.51" y2="290.95"/><path class="cls-6" d="M594.3,405.3v89.52H0v-37H0c0-31.88,29-53.51,36.1-88.84l35.36-46.26L99.37,290.3l16.75-55.83,31.26,44.1L172,316v47.2l89.85-49.43,77.94,33.76,11.16-19.25,54.71-40.19,29-65.88,23.45-52.48L486,209.91l43.54,31.26,15.63,67,13.4,32.38Z"/></g></g></svg>