<svg xmlns="http://www.w3.org/2000/svg" viewBox="0 0 274.32 413.45"><defs><style>.cls-1{fill:#6d6e71;stroke:#231f20;stroke-miterlimit:10;}.cls-2{fill:#e28825;}.cls-3{fill:#f15a29;}.cls-4{fill:#fff;}.cls-5{fill:#f7941d;}</style></defs><g id="Layer_2" data-name="Layer 2"><g id="Layer_1-2" data-name="Layer 1"><rect class="cls-1" x="0.5" y="0.5" width="273.32" height="412.45"/><path class="cls-2" d="M236.4,136.72a99.28,99.28,0,0,0-12.76,4.66,106.38,106.38,0,0,0-21.83,13.05c-30.36,3.28-58,14.34-80.23,30.86A88.54,88.54,0,0,1,93,120.07a88.59,88.59,0,0,1,24.24-60.93,89,89,0,0,1,27.47-19.72A60.87,60.87,0,0,0,141,60.3a60.12,60.12,0,0,0,2.05,15.61c.29,1.11.62,2.21,1,3.31q.1.36.24.72c.1.3.2.61.32.91.19.54.39,1.08.6,1.61.1.27.2.54.31.8s.21.54.33.8c.19.45.38.9.58,1.34.3.7.63,1.4,1,2.09l.63,1.26c.26.51.53,1,.8,1.51,0,0,0,0,0,.07.27.49.55,1,.83,1.47s.59,1,.89,1.49.48.79.74,1.18.34.53.52.79c.52.81,1.08,1.61,1.66,2.41.32.45.65.9,1,1.34l.07.09c.35.47.71.93,1.07,1.38l1,1.23.27.32c.25.31.51.61.78.92s.31.36.48.54.57.65.87,1q.73.81,1.53,1.62a10.4,10.4,0,0,0-2.25,6.49A10.51,10.51,0,0,0,177,119.25l.65.4,1.44.87,1.38.8c.76.43,1.53.86,2.3,1.27a103.32,103.32,0,0,0,20,8.1c1.24.36,2.49.7,3.76,1,.63.16,1.26.32,1.9.46.4.1.79.19,1.19.27.56.13,1.12.24,1.69.36.86.18,1.72.35,2.59.5l.9.16c1,.17,2,.33,3,.47l1.83.25c1.35.18,2.7.33,4.07.45l2,.17,2,.14,1.36.07,1.64.07c1.27,0,2.55.06,3.83.06h1.55Z"/><path class="cls-3" d="M116.72,51.06a60.14,60.14,0,0,0,.54,8.08A88.38,88.38,0,0,0,93.48,111a141.58,141.58,0,0,0-19,31.29,88.8,88.8,0,0,1,46-112.12A60.87,60.87,0,0,0,116.72,51.06Z"/><path class="cls-4" d="M236.1,135.12h-1.55c-1.28,0-2.56,0-3.83-.06l-1.64-.07-1.36-.07-2-.14-2-.17c-1.37-.12-2.72-.27-4.07-.45l-1.83-.25c-1-.14-2-.3-3-.47l-.9-.16c-.87-.15-1.73-.32-2.59-.5-.57-.12-1.13-.23-1.69-.36-.4-.08-.79-.17-1.19-.27-.64-.14-1.27-.3-1.9-.46-1.27-.31-2.52-.65-3.76-1a103.32,103.32,0,0,1-20-8.1c-.77-.41-1.54-.84-2.3-1.27l-1.38-.8-1.44-.87-.65-.41c-.61-.37-1.21-.76-1.81-1.16-.44-.29-.89-.58-1.32-.88q-3.44-2.34-6.56-4.94c-.44-.36-.86-.72-1.28-1.09s-1-.83-1.43-1.25-.64-.58-1-.88c-.67-.62-1.33-1.25-2-1.89-.34-.33-.67-.67-1-1a.17.17,0,0,1-.06-.06q-.79-.81-1.53-1.62c-.3-.32-.59-.65-.87-1s-.32-.36-.48-.54-.53-.61-.78-.92l-.27-.32-1-1.23c-.36-.45-.72-.91-1.07-1.38l-.07-.09c-.34-.44-.67-.89-1-1.34-.58-.8-1.14-1.6-1.66-2.41-.18-.26-.35-.52-.52-.79s-.5-.78-.74-1.18-.6-1-.89-1.49-.56-1-.83-1.47c0,0,0,0,0-.07-.27-.5-.54-1-.8-1.51l-.63-1.26c-.34-.69-.67-1.39-1-2.09-.2-.44-.39-.89-.58-1.34-.12-.26-.23-.53-.33-.8s-.21-.53-.31-.8c-.21-.53-.41-1.07-.6-1.61,1.54-.13,3.08-.19,4.64-.19l1.37,0h0L236,134.53h0Z"/><path class="cls-5" d="M66.74,289.12a121.49,121.49,0,0,0,1,15.34C60.49,282.94,56.39,258.25,56.39,232c0-33.58,6.71-64.6,18.07-89.7a141.58,141.58,0,0,1,19-31.29,87.51,87.51,0,0,0-.46,9.06,88.54,88.54,0,0,0,28.56,65.22C88.05,210.18,66.74,247.46,66.74,289.12Z"/><path class="cls-4" d="M127.35,327.92a259.26,259.26,0,0,0,5.35,53c-28.07-8.23-51.76-37-65-76.47a121.49,121.49,0,0,1-1-15.34c0-41.66,21.31-78.94,54.84-103.83a89.27,89.27,0,0,0,16.73,12.17,88.07,88.07,0,0,0,22.56,8.87C140.41,235.16,127.35,278.92,127.35,327.92Z"/><path class="cls-4" d="M201.81,154.43a125.28,125.28,0,0,0-36.29,45.77q-2.39,2.94-4.65,6.13a88.07,88.07,0,0,1-22.56-8.87,89.27,89.27,0,0,1-16.73-12.17C143.83,168.77,171.45,157.71,201.81,154.43Z"/><path class="cls-4" d="M177,119.24h0a10.51,10.51,0,0,1-18.62-6.68,10.4,10.4,0,0,1,2.25-6.49.17.17,0,0,0,.06.06c.32.34.65.68,1,1,.64.64,1.3,1.27,2,1.89.31.3.63.59,1,.88s.94.84,1.43,1.25.84.73,1.28,1.09q3.12,2.59,6.56,4.94c.43.3.88.59,1.32.88C175.74,118.48,176.34,118.87,177,119.24Z"/></g></g></svg>