<svg xmlns="http://www.w3.org/2000/svg" viewBox="0 0 394.65 388.54"><defs><style>.cls-1{fill:#ef4136;stroke:#231f20;stroke-miterlimit:10;}</style></defs><g id="Layer_2" data-name="Layer 2"><g id="Layer_1-2" data-name="Layer 1"><path class="cls-1" d="M109.78,15.41c2.84-.66,6.64,2.89,8.25,6.65A12,12,0,0,1,119,25.5c.5,5,1.77,15.71,3.44,30-.19,16.63-.11,25.11,0,29.81,0,1.54.17,6.44,0,13.07-.08,3.1-.19,5.37-.23,6.19-.23,4.82-.46,12.79-.46,26.6-1.8,4.64-1.14,7.76-.69,9.17.23.69.66,2,1.38,2.06,1,.09,2.1-2.27,3.06-4.28.48-1,.55-1.34,1.07-2.29a19.9,19.9,0,0,1,1.83-2.75c1.9-2.46,4.13-4.85,5.05-5.81,2.09-3.59,3.77-6.7,5.27-9,0,0,2.16-3.63,9.17-14.44a32.43,32.43,0,0,1,2.75-3.67,20.9,20.9,0,0,1,4.82-4.36A19.43,19.43,0,0,1,160,93.83a13.16,13.16,0,0,1,4.59-.92,10.49,10.49,0,0,1,5,1.38,10.24,10.24,0,0,1,2.76,2.29,10.44,10.44,0,0,1,2.06,4.13,11.67,11.67,0,0,1-.23,5.73c-1.74,7.26-2.6,10.89-4.81,15.36-.63,1.28-1.56,3-3.21,6.42-.57,1.18-1.16,2.41-1.84,3.9-.82,1.81-1.38,3.14-1.6,3.67-1.6,3.76-3.4,7.45-4.13,8.94-2.69,5.5-5.5,10.55-5.51,10.55a25.23,25.23,0,0,1-1.14,4.59c-.67,1.9-1,2.17-2.29,5-1.4,3.11-1.38,3.65-2.76,6.65,0,0-1,2.13-2.06,4.13-3.64,6.69-7.88,10.42-11.46,15.59l-2.07,3a15,15,0,0,0-1.14,3.9c-.34,2.19,0,3.3-.92,4.36-.48.54-.78.49-1.84,1.53-.76.74-.83,1-1.37,1.53-.77.75-1.08.68-2.75,1.68a34.46,34.46,0,0,0-3.52,2.44c-.75.58-1.13.87-1.53,1.23a20.2,20.2,0,0,0-3.21,4c-.63,1-1.18,1.94-2.29,3.9a36.52,36.52,0,0,0-1.84,3.44c-.46,1.23-.3,1.37-1.14,4.58-.21.79-.21.75-.69,2.53a28.58,28.58,0,0,0-.92,3.44c-.11,1.73.67,1.79.92,4.12.2,1.87-.27,2,0,3.9A27.9,27.9,0,0,0,110,244c.44,1.93.12,3.06,0,5a34.66,34.66,0,0,0,.46,6.65c.59,5.71.32,8.8.68,15.13.22,3.7.84,8.25,2.07,17.2,1.79,13,1.81,11.64,2.52,17.42,1.57,12.91,1,16,2.52,26.6,1,6.7,2.17,12.06,3,15.37a13.69,13.69,0,0,0,.69,6.42c.66,1.76,1.48,2.66,1.38,4.35-.07,1.16-.53,2-1.61,3.67-2.1,3.35-3.15,5-3.9,6a41.24,41.24,0,0,1-6.19,6.19,50.72,50.72,0,0,1-7.57,5.28,61,61,0,0,1-11.46,4.81c-1.61.55-3.15,1.07-5.27,1.61a62.14,62.14,0,0,1-9.63,1.6,94.31,94.31,0,0,1-17.89.46c-4.48-.36-9.77-1.7-20.18-4.35-15.58-4-20.3-6-24.07-10.32a14.68,14.68,0,0,1-3.21-5.28c-1.61-4.86.67-7.55,2.29-16.28.65-3.5.89-7.38,1.37-15.13.35-5.6.44-9.85.46-11,.2-10.58-.5-11.87-.23-19,.13-3.25.26-2.58,1.84-16.28.13-1.11.77-7,2.06-18.8,1.84-16.85,1.86-17,2.07-17.89,2.44-10.61,5.4-12.31,5-19.95a62.39,62.39,0,0,0-1.83-11c-.82-3.08-1.25-3.66-2.76-8.72a91.74,91.74,0,0,1-2.52-9.63A75,75,0,0,1,19,192.66c-.26-6,0-10.53,0-11.7.62-15.18-3.84-25.1-5.5-50-.29-4.36-.4-7.87-.46-9.86a30.59,30.59,0,0,1-1.83-4.82c-.7-2.43-.72-3.67-1.61-7.34-.38-1.58-.69-2.64-.91-3.44a324.49,324.49,0,0,1-8-42.19A55.15,55.15,0,0,1,.86,53c.35-3.62.82-5.62,2.29-7.33a9.69,9.69,0,0,1,4.36-2.75,6.84,6.84,0,0,1,4.36-.46c1.22.38,2.25,1.28,4.12,4.58a47.15,47.15,0,0,1,3.21,6.88c2.71,7.12,3.08,6,4.36,10.09,1.44,4.58.53,4.51,2.52,12.84.63,2.63,1,3.92,1.61,6.88.28,1.43.36,2.06,1.14,6.88.7,4.28,1.05,6.43,1.15,6.88,1.29,5.49,2.18,4.82,3,8.71A4.84,4.84,0,0,0,34.34,109a3,3,0,0,0,2.29.92c1.61-.25,2.74-2.57,2.29-4.13-.27-1-.94-.89-1.83-2.29A9.23,9.23,0,0,1,35.94,100a24,24,0,0,1-.46-4.36c0-3.66-.08-5.5,0-7.33.12-2.41-.23-6.5-.91-14.68C34,67,34,68,33.65,63.56S33,54.7,33,49.12c0-.32.08-3.35.23-9.4s.24-9.17.69-13.3a49.77,49.77,0,0,1,1.6-7.8c1.1-3.8,2-5.08,3.21-5.73a8.54,8.54,0,0,1,3.44-.69,14.94,14.94,0,0,1,3.21.23c2.41.33,3.62.49,4.36.92,1.13.64,1.75,1.88,3,4.35a26.09,26.09,0,0,1,2.29,6,31.45,31.45,0,0,1,.69,5.51c.29,3.08.5,2.5,1.61,9.17,1,5.85,1.38,9.72,1.6,12.09,0,.09.06.71.11,1.35a139.29,139.29,0,0,1,.35,14.76c-.13,4.17.17,12.11,1.84,28.44.55.84,1.29,1.75,1.83,1.6,1-.28.75-4.07.46-8.48,0,0,0-.52-1.38-22.24-.11-1.82-.22-4.42-.46-9.64-.13-3-.2-4.9-.68-19.26-.24-7.17-.36-10.8,0-13.3a93,93,0,0,1,2.29-10.31c.07-.28.69-2.67,1.83-5.74,1.53-4.09,2.29-4.87,2.76-5.27A8.6,8.6,0,0,1,73.32.51a10.4,10.4,0,0,1,4.58.91,11.46,11.46,0,0,1,3.9,2.75c.52.57,1.61,1.88,3,6a45.78,45.78,0,0,1,1.61,6.19c1.32,6.75,2,12,2.06,12.84.49,4,.72,7.07.92,9.63s.36,4.79.46,7.79.07,5.62,0,8.26C89.52,65.68,88.2,78,89.37,83.74a34.37,34.37,0,0,0,1.15,4.36c1,2.73,1.48,2.76,1.6,4.12.23,2.5-1.4,3.17-1.15,5.74.17,1.65,1,3.45,1.84,3.44,1.13,0,1.92-3.73,2.29-5.51a58.11,58.11,0,0,0,.69-17.19c-.31-4.53.38-1.81,2.06-22,1.08-12.91,1.62-19.37,1.61-19.49-.09-1-.64-6.8,1.22-10.93.34-.74.78-1.49,1.68-3.51,1.18-2.63,1.28-3.24,2.14-4.13a13.12,13.12,0,0,1,2.91-2A11.77,11.77,0,0,1,109.78,15.41Z"/><path class="cls-1" d="M284.87,15.41c-2.84-.66-6.64,2.89-8.26,6.65a11.83,11.83,0,0,0-.91,3.44c-.51,5-1.77,15.71-3.44,30,.18,16.63.11,25.11,0,29.81,0,1.54-.17,6.44,0,13.07.08,3.1.19,5.37.23,6.19.23,4.82.45,12.79.45,26.6,1.81,4.64,1.15,7.76.69,9.17-.22.69-.66,2-1.37,2.06-1,.09-2.11-2.27-3.06-4.28-.49-1-.55-1.34-1.07-2.29a20.84,20.84,0,0,0-1.83-2.75c-1.9-2.46-4.14-4.85-5.05-5.81-2.09-3.59-3.78-6.7-5.27-9,0,0-2.17-3.63-9.18-14.44a30.06,30.06,0,0,0-2.75-3.67,20.62,20.62,0,0,0-4.81-4.36,19.46,19.46,0,0,0-4.59-2.06,13.11,13.11,0,0,0-4.58-.92,10.52,10.52,0,0,0-5,1.38,10,10,0,0,0-4.81,6.42,11.55,11.55,0,0,0,.23,5.73c1.73,7.26,2.6,10.89,4.81,15.36.63,1.28,1.56,3,3.21,6.42.57,1.18,1.16,2.41,1.84,3.9.81,1.81,1.37,3.14,1.6,3.67,1.6,3.76,3.4,7.45,4.13,8.94,2.68,5.5,5.5,10.55,5.5,10.55a26.31,26.31,0,0,0,1.15,4.59c.66,1.9,1,2.17,2.29,5,1.39,3.11,1.38,3.65,2.75,6.65,0,0,1,2.13,2.07,4.13,3.64,6.69,7.87,10.42,11.46,15.59l2.06,3a15.12,15.12,0,0,1,1.15,3.9c.33,2.19,0,3.3.92,4.36.48.54.77.49,1.83,1.53.76.74.84,1,1.38,1.53.77.75,1.07.68,2.75,1.68a34.46,34.46,0,0,1,3.52,2.44c.75.58,1.13.87,1.52,1.23a19.42,19.42,0,0,1,3.21,4c.64,1,1.19,1.94,2.3,3.9a35.4,35.4,0,0,1,1.83,3.44c.46,1.23.31,1.37,1.15,4.58.2.79.21.75.69,2.53a26.66,26.66,0,0,1,.91,3.44c.11,1.73-.66,1.79-.91,4.12-.21,1.87.27,2,0,3.9a30.07,30.07,0,0,1-.92,3.21c-.44,1.93-.12,3.06,0,5a34.66,34.66,0,0,1-.46,6.65c-.6,5.71-.32,8.8-.69,15.13-.21,3.7-.83,8.25-2.06,17.2-1.79,13-1.82,11.64-2.52,17.42-1.58,12.91-1,16-2.53,26.6-1,6.7-2.17,12.06-3,15.37a13.59,13.59,0,0,1-.68,6.42c-.67,1.76-1.48,2.66-1.38,4.35.07,1.16.52,2,1.6,3.67,2.11,3.35,3.16,5,3.9,6A41.24,41.24,0,0,0,283,374a50.72,50.72,0,0,0,7.57,5.28,60.85,60.85,0,0,0,11.47,4.81c1.61.55,3.15,1.07,5.27,1.61a61.94,61.94,0,0,0,9.63,1.6,94.28,94.28,0,0,0,17.89.46c4.48-.36,9.77-1.7,20.17-4.35,15.58-4,20.31-6,24.08-10.32a14.82,14.82,0,0,0,3.21-5.28c1.61-4.86-.67-7.55-2.29-16.28-.65-3.5-.89-7.38-1.38-15.13-.35-5.6-.43-9.85-.46-11-.19-10.58.51-11.87.23-19-.12-3.25-.25-2.58-1.83-16.28-.13-1.11-.78-7-2.07-18.8-1.84-16.85-1.85-17-2.06-17.89-2.44-10.61-5.4-12.31-5-19.95a62.39,62.39,0,0,1,1.83-11c.82-3.08,1.25-3.66,2.75-8.72a87,87,0,0,0,2.52-9.63,72.51,72.51,0,0,0,1.15-11.46c.26-6,.05-10.53,0-11.7-.62-15.18,3.85-25.1,5.5-50,.29-4.36.41-7.87.46-9.86a30.83,30.83,0,0,0,1.84-4.82c.69-2.43.71-3.67,1.6-7.34.39-1.58.69-2.64.92-3.44a326.19,326.19,0,0,0,8-42.19A55.15,55.15,0,0,0,393.79,53c-.35-3.62-.83-5.62-2.3-7.33a9.67,9.67,0,0,0-4.35-2.75,6.84,6.84,0,0,0-4.36-.46c-1.22.38-2.26,1.28-4.13,4.58a49.53,49.53,0,0,0-3.21,6.88c-2.71,7.12-3.07,6-4.35,10.09-1.45,4.58-.53,4.51-2.53,12.84-.63,2.63-1,3.92-1.6,6.88-.28,1.43-.37,2.06-1.15,6.88-.69,4.28-1,6.43-1.15,6.88-1.29,5.49-2.18,4.82-3,8.71a4.87,4.87,0,0,1-1.37,2.75,3,3,0,0,1-2.29.92c-1.61-.25-2.74-2.57-2.3-4.13.28-1,.95-.89,1.84-2.29A9.23,9.23,0,0,0,358.7,100a23.07,23.07,0,0,0,.46-4.36c.06-3.66.09-5.5,0-7.33-.11-2.41.23-6.5.92-14.68.56-6.66.58-5.64.92-10.09s.66-8.86.68-14.44c0-.32-.07-3.35-.23-9.4s-.24-9.17-.68-13.3a49.13,49.13,0,0,0-1.61-7.8c-1.09-3.8-1.94-5.08-3.21-5.73a8.48,8.48,0,0,0-3.44-.69,15,15,0,0,0-3.21.23c-2.41.33-3.61.49-4.36.92-1.13.64-1.74,1.88-3,4.35a26.56,26.56,0,0,0-2.29,6,33.47,33.47,0,0,0-.69,5.51c-.28,3.08-.49,2.5-1.6,9.17-1,5.85-1.39,9.72-1.6,12.09,0,.09-.06.71-.12,1.35a142.37,142.37,0,0,0-.35,14.76c.13,4.17-.16,12.11-1.83,28.44-.56.84-1.29,1.75-1.83,1.6-1-.28-.76-4.07-.46-8.48,0,0,0-.52,1.37-22.24.11-1.82.23-4.42.46-9.64.14-3,.21-4.9.69-19.26.24-7.17.35-10.8,0-13.3a93,93,0,0,0-2.29-10.31c-.07-.28-.7-2.67-1.84-5.74-1.52-4.09-2.28-4.87-2.75-5.27a8.62,8.62,0,0,0-5.5-1.83,10.46,10.46,0,0,0-4.59.91,11.56,11.56,0,0,0-3.9,2.75c-.52.57-1.61,1.88-3,6a45.39,45.39,0,0,0-1.6,6.19c-1.32,6.75-2,12-2.07,12.84-.48,4-.72,7.07-.91,9.63s-.37,4.79-.46,7.79-.08,5.62,0,8.26c.31,10.83,1.63,23.12.46,28.89a36.58,36.58,0,0,1-1.15,4.36c-1,2.73-1.48,2.76-1.61,4.12-.22,2.5,1.41,3.17,1.15,5.74-.16,1.65-1,3.45-1.83,3.44-1.13,0-1.93-3.73-2.3-5.51a57.67,57.67,0,0,1-.68-17.19c.3-4.53-.38-1.81-2.07-22-1.07-12.91-1.61-19.37-1.6-19.49.09-1,.63-6.8-1.23-10.93-.33-.74-.77-1.49-1.68-3.51-1.17-2.63-1.27-3.24-2.14-4.13a12.77,12.77,0,0,0-2.9-2A12.05,12.05,0,0,0,284.87,15.41Z"/></g></g></svg>