<svg xmlns="http://www.w3.org/2000/svg" xmlns:xlink="http://www.w3.org/1999/xlink" viewBox="0 0 177.22 241.91"><defs><style>.cls-1{fill:#a9a1cf;}.cls-2{fill:#f2c7de;}.cls-11,.cls-15,.cls-18,.cls-19,.cls-2,.cls-20,.cls-3,.cls-5,.cls-7,.cls-8{stroke:#4c3a92;}.cls-11,.cls-13,.cls-14,.cls-15,.cls-16,.cls-17,.cls-18,.cls-19,.cls-2,.cls-20,.cls-3,.cls-5,.cls-6,.cls-7,.cls-8{stroke-miterlimit:10;}.cls-15,.cls-2,.cls-3,.cls-5,.cls-6,.cls-7,.cls-8{stroke-width:2.88px;}.cls-3{fill:#fbd3df;}.cls-4,.cls-5{fill:#f0c4dc;}.cls-11,.cls-13,.cls-14,.cls-15,.cls-16,.cls-18,.cls-19,.cls-20,.cls-6,.cls-7{fill:none;}.cls-6{stroke:#e9adce;}.cls-8{fill:url(#radial-gradient);}.cls-9{fill:#4c3a92;}.cls-10,.cls-22{fill:#fff;}.cls-11{stroke-width:1.44px;}.cls-12{fill:#f38187;}.cls-13,.cls-16,.cls-17{stroke:#fff;}.cls-13{stroke-width:1.61px;}.cls-14{stroke:#eed9bd;}.cls-14,.cls-16,.cls-17,.cls-18{stroke-width:2.16px;}.cls-15{stroke-linecap:round;}.cls-17{fill:#fbf9d3;}.cls-19{stroke-width:1.74px;}.cls-20{stroke-width:1.69px;}.cls-21{fill:#f0b38b;}.cls-22{opacity:0.44;}.cls-23{opacity:0.38;fill:url(#linear-gradient);}</style><radialGradient id="radial-gradient" cx="100.53" cy="56.07" fx="73.92011072593743" r="86.44" gradientTransform="translate(185.09 -45.51) rotate(89.29) scale(1 1.53)" gradientUnits="userSpaceOnUse"><stop offset="0" stop-color="#fbf9d5"/><stop offset="0.13" stop-color="#fbf9d2"/><stop offset="0.24" stop-color="#fbf8c8"/><stop offset="0.33" stop-color="#fbf7b7"/><stop offset="0.42" stop-color="#faf59f"/><stop offset="0.51" stop-color="#faf381"/><stop offset="0.59" stop-color="#faf05c"/><stop offset="0.67" stop-color="#f9ed32"/></radialGradient><linearGradient id="linear-gradient" x1="165.17" y1="145.46" x2="165.67" y2="145.46" gradientUnits="userSpaceOnUse"><stop offset="0.06" stop-color="#fff" stop-opacity="0.68"/><stop offset="0.39" stop-color="#fbf8f9" stop-opacity="0.71"/><stop offset="0.68" stop-color="#ede4e6" stop-opacity="0.81"/><stop offset="0.95" stop-color="#d7c2c7" stop-opacity="0.97"/><stop offset="1" stop-color="#d2bbc0"/></linearGradient></defs><g id="Layer_2" data-name="Layer 2"><g id="cake"><ellipse class="cls-1" cx="83.12" cy="227.25" rx="42.53" ry="14.66"/><path class="cls-2" d="M114.27,171.51l-4.43,50.24c-1.15,2.85-3.34,6.89-7.54,9.28-3.72,2.1-6.07,1.25-16.39,1.19-13.86-.08-16,.32-21-1.18-3.63-1.11-6.94-2.5-7.59-9.3-1.73-17.88-3.41-36-5.14-53.87l1.24.26.18,0,3.49.66h0c11.35,2,16.89,2.69,20.68,3.12.93.11,7.17.78,8.1.77C97.48,172.58,106.22,172.36,114.27,171.51Z"/><path class="cls-3" d="M148.91,118.19v9.91c-.65,7.66-2.4,18-7.36,27a30.21,30.21,0,0,1-7.52,9A33.34,33.34,0,0,1,115,171.29a147.13,147.13,0,0,1-31.34,1.52,146.73,146.73,0,0,1-26.49-4h0l-3.49-.66-.18,0-1.3-.33c-3-.85-13.06-3.63-19.68-12.73a43.52,43.52,0,0,1-6.23-15.63c-.56-2.69-.85-5.54-.85-5.54-.22-2.23-.29-4.19-.29-5.8V118a371,371,0,0,0,62.37,5.28A371.64,371.64,0,0,0,148.91,118.19Z"/><path class="cls-4" d="M53.62,168.17l3.49.66C56.23,168.7,55,168.5,53.62,168.17Z"/><path class="cls-5" d="M148.91,100.36v17.83a371.64,371.64,0,0,1-61.45,5.12A371,371,0,0,1,25.09,118V100.36Z"/><line class="cls-6" x1="53.73" y1="168.92" x2="80.56" y2="231.36"/><line class="cls-6" x1="76.07" y1="172.41" x2="101.66" y2="230.83"/><line class="cls-6" x1="96.48" y1="172.72" x2="111.29" y2="204.92"/><line class="cls-6" x1="113.29" y1="171.13" x2="87.59" y2="231.74"/><line class="cls-6" x1="92.33" y1="172.28" x2="66.65" y2="230.83"/><line class="cls-6" x1="72.38" y1="171.29" x2="56.18" y2="206.52"/><path class="cls-7" d="M114.24,171.52l-4.42,50.24c-1.15,2.85-3.34,6.89-7.54,9.28-3.72,2.1-6.07,1.25-16.39,1.19-13.86-.08-16,.32-21-1.18-3.63-1.11-6.94-2.5-7.59-9.3-1.73-17.88-3.41-36-5.14-53.87l1.24.26.18,0,3.49.66h0c11.34,2,16.88,2.68,20.67,3.12.93.11,7.17.78,8.11.77C97.45,172.59,106.19,172.37,114.24,171.52Z"/><path class="cls-7" d="M148.89,118.2v9.91c-.65,7.66-2.4,18-7.36,27a30.52,30.52,0,0,1-7.52,9,33.28,33.28,0,0,1-19.08,7.17,147,147,0,0,1-31.34,1.53,146.46,146.46,0,0,1-26.48-4h0l-3.49-.66-.18,0-1.3-.33c-3-.85-13.06-3.63-19.68-12.73a43.52,43.52,0,0,1-6.23-15.63c-.56-2.69-.85-5.54-.85-5.54-.22-2.23-.29-4.19-.29-5.8V118a371,371,0,0,0,62.37,5.28A371.64,371.64,0,0,0,148.89,118.2Z"/><path class="cls-8" d="M175.78,76.16a30.63,30.63,0,0,1-30.66,30.61,31.23,31.23,0,0,1-6.75-.74c-10,7.74-24.15,6.56-27.51,6.28a46.07,46.07,0,0,1-22.71-8.48c-1.73.14-4.27.4-7.33.92-5.47.92-6,1.54-9.63,2.06-4.18.59-9.18,1.31-13.76-1.15-1.19-.63-1.51-1-5.54-4.94-16.82,9.26-35.55,7.58-44.5-2C-.17,90.61,1.5,79.28,1.83,77.06,3.64,64.85,14.94,53.37,25.36,50.58c1.3-.35,4-.94,10-2.51,1.89-.49,4.74-1.25,6.19-1.66a82.78,82.78,0,0,0,16.3-6.58C69.54,33.45,77.08,25,78.94,21.67A51.31,51.31,0,0,1,86.06,12c9.12-10.08,14.4-10.56,16.5-10.55,6,0,10.82,4.52,12.39,6a21.81,21.81,0,0,1,3.82,4.74A19.6,19.6,0,0,1,120.06,15h0a57,57,0,0,0,9.14,14.81c3.72,4.33,6.24,7.29,10.78,9.4,4,1.85,5.16,3.16,6.3,3.6,14.6,5.67,7.16,3.55,11.06,4.91,0,0,.19.24.54.63h0a30.74,30.74,0,0,1,9,6.27h0a30.44,30.44,0,0,1,8.9,21.56Z"/><ellipse class="cls-9" cx="83.29" cy="68.56" rx="4.21" ry="4.01"/><circle class="cls-10" cx="84.6" cy="66.68" r="1.76"/><circle class="cls-10" cx="81" cy="70.39" r="1.03"/><ellipse class="cls-9" cx="111.55" cy="67.9" rx="4.21" ry="4.01"/><circle class="cls-10" cx="112.86" cy="66.03" r="1.76"/><circle class="cls-10" cx="109.27" cy="69.74" r="1.03"/><path class="cls-11" d="M93.9,70.43c1.2,1.94,4.44,2.11,7.24.37"/><ellipse class="cls-12" cx="78.12" cy="74.97" rx="6.73" ry="1.99"/><ellipse class="cls-12" cx="114.52" cy="74.63" rx="6.73" ry="1.99"/><path class="cls-13" d="M34.85,127c0,11.33,3,20.49,6.73,20.49"/><path class="cls-13" d="M45.86,151c0,.76,1.85,1.38,4.13,1.38"/><path class="cls-14" d="M70.06,43.17A15.33,15.33,0,0,0,75,40a15.33,15.33,0,0,0,3.9-6.65"/><path class="cls-14" d="M60.17,46.68a47.55,47.55,0,0,0,7.24-2"/><path class="cls-15" d="M104.08,25.3c.15,1.06-2.66,1-2.7,3.9,0,3.1,2.87,5.22,7.15,5.84,0,0,6.35.93,11.62-8.11a17.75,17.75,0,0,0,2-5"/><path class="cls-16" d="M8.64,81.66a19.23,19.23,0,0,1-.38-9.78c2.2-9.7,11.49-13.86,12.68-14.37"/><path class="cls-17" d="M85.15,20.74A77.47,77.47,0,0,1,92.26,13c3.57-3.42,5-4.16,6.42-4.59a12.07,12.07,0,0,1,11.92,3"/><path class="cls-18" d="M18.36,94.18a18.27,18.27,0,0,0,5.85,2.18,18.82,18.82,0,0,0,10.31-1"/><path class="cls-19" d="M56.9,93.9a9.75,9.75,0,0,0,1.7,4,8.29,8.29,0,0,0,5.95,3.2"/><path class="cls-20" d="M100.88,103.65a18.84,18.84,0,0,0,3.8,1.87,22.1,22.1,0,0,0,11.5.66,28.7,28.7,0,0,0,9.78-3.52"/><path class="cls-21" d="M12.4,100.92a22.78,22.78,0,0,0,3.21,1.84,25.65,25.65,0,0,0,6.48,1.95,39,39,0,0,0,8,.68,43.31,43.31,0,0,0,10.43-1.6c1.49-.38,2.71-.76,3.56-1"/><path class="cls-21" d="M57,103.56a5.49,5.49,0,0,0,.92.74,7,7,0,0,0,1.55.72,13.49,13.49,0,0,0,4.58.92c.46,0,.86,0,1.67,0,1.32,0,2.33-.14,2.66-.17.89-.09,2-.22,3.27-.43a27.07,27.07,0,0,0,4.87-1.12c0-.22-5.42,1.18-12.21.65A39,39,0,0,1,57,103.56Z"/><path class="cls-21" d="M95.7,106.64c.62.3,1.42.67,2.36,1.07.61.25,2.1.85,4.09,1.45a48.09,48.09,0,0,0,6,1.37c1.28.22,2.39.41,3.9.54a41,41,0,0,0,6.73-.08,48.07,48.07,0,0,0,6-.65c2.2-.39,5.74-1.19,5.69-1.49s-7.84,1.14-16.7.88A66.47,66.47,0,0,1,95.7,106.64Z"/><path class="cls-21" d="M140.71,105a25.08,25.08,0,0,0,2.72.31,29.83,29.83,0,0,0,4.51-.11,26.74,26.74,0,0,0,4.16-.58,25.27,25.27,0,0,0,5.12-1.87,31.89,31.89,0,0,0,3.44-1.83c1-.65,3.17-2.07,3.06-2.26s-4.61,2.56-9.94,4.36A38.45,38.45,0,0,1,140.71,105Z"/><ellipse class="cls-10" cx="38.83" cy="84.01" rx="7.03" ry="6.42"/><ellipse class="cls-22" cx="142.01" cy="80.34" rx="11.16" ry="11.62"/><ellipse class="cls-23" cx="118.47" cy="145.46" rx="11.16" ry="11.62"/><ellipse class="cls-22" cx="78.94" cy="84.01" rx="5.87" ry="6.11"/></g></g></svg>