<svg xmlns="http://www.w3.org/2000/svg" viewBox="0 0 182.77 399.38"><defs><style>.cls-1{fill:#aaa1da;}.cls-2{fill:#fee49c;}.cls-2,.cls-3,.cls-4,.cls-7{stroke:#7269a2;}.cls-10,.cls-2,.cls-3,.cls-4,.cls-7,.cls-9{stroke-miterlimit:10;}.cls-2,.cls-3,.cls-4{stroke-width:2.88px;}.cls-3{fill:#9bcea0;}.cls-4{fill:#dffde1;}.cls-5{fill:#7269a2;}.cls-11,.cls-6{fill:#fff;}.cls-10,.cls-7,.cls-9{fill:none;}.cls-7{stroke-width:2.7px;}.cls-8{fill:#ffb8e9;}.cls-9{stroke:#7aac7f;}.cls-10,.cls-9{stroke-width:3.6px;}.cls-10{stroke:#fff;}.cls-11{opacity:0.72;}</style></defs><g id="Layer_2" data-name="Layer 2"><g id="Layer_1-2" data-name="Layer 1"><ellipse class="cls-1" cx="87.36" cy="378.75" rx="87.36" ry="20.64"/><path class="cls-2" d="M85.53,391.36h0a14.45,14.45,0,0,1-14.45-14.45l8.41-63.59,14.68-.92,5.8,64.51A14.44,14.44,0,0,1,85.53,391.36Z"/><path class="cls-3" d="M166,305.37c-5.17,2.41-18,.55-21.78,2.75-6.65,3.9-14.52,14-23.85,16.05-9.71,2.14-11.29-3.26-28.43-5.27-10.17-1.19-12.87-1.06-15.59-.23-14.11,4.31-23.86,14-31.88,12.38-2.72-.54-6.33-2-10.23-6.49a11.3,11.3,0,0,0-10.42-3.68c-5.47.9-10.13-.38-12.33-3.37a8.47,8.47,0,0,1-1.52-5.1V190.87H160.82C180.65,276.71,175.64,300.88,166,305.37Z"/><path class="cls-4" d="M181.33,265.28c-.46,26.84-17.27,26.53-19.72,26.53-18,0-22.93-21.71-28.43-26.22-15.58-12.76-28.24,48-44.72,46.78C73.22,311.22,71.4,270,54.07,267.66c-18.36-2.5-34.41,41.22-45.4,37.83-8.57-2.64-6-31.6-6.07-41C1.83,142.57,5.23,138.76,5.23,89.56A88.08,88.08,0,0,1,93.28,1.44h0a88,88,0,0,1,88.05,88.05Z"/><ellipse class="cls-5" cx="65.28" cy="111.27" rx="8" ry="7.64"/><circle class="cls-6" cx="72.31" cy="107.05" r="2.52"/><circle class="cls-6" cx="61.63" cy="115.03" r="1.89"/><ellipse class="cls-5" cx="124.1" cy="111.69" rx="8" ry="7.64"/><circle class="cls-6" cx="126.82" cy="108.33" r="3.15"/><circle class="cls-6" cx="120.45" cy="115.45" r="1.89"/><path class="cls-7" d="M86.72,119.22c1.16,1.8,4.35,6.23,8.56,5.88,3.91-.32,6.53-4.6,7.56-6.51"/><ellipse class="cls-8" cx="53.67" cy="127.45" rx="9.17" ry="2.86"/><ellipse class="cls-8" cx="134.54" cy="126.94" rx="9.17" ry="2.86"/><path class="cls-9" d="M32.56,319.59c1,1.67,4.3,7,10.19,8.13a15.9,15.9,0,0,0,5.56,0c3.39-.49,5.47-1.63,10.08-4,5.25-2.66,7.88-4,10.25-5,5.23-2.3,7.85-3.45,10.85-3.82,4.16-.52,4.45.67,14.83,2.14,6.76,1,7.67.6,11.92,1.68,6.62,1.68,6.06,3,9.33,3.21,5.34.41,10.41-3.39,20.33-11,3.13-2.4,5.61-4.46,7.18-5.8l21.86-2.3"/><path class="cls-9" d="M80.71,11a66.16,66.16,0,0,0-13.07,4.13A63.49,63.49,0,0,0,51.13,25.4a58.91,58.91,0,0,0-11,13.07"/><path class="cls-9" d="M21.55,57A53.88,53.88,0,0,0,17.43,66c-5.24,14.79-2.73,28.43-.69,35.77"/><path class="cls-9" d="M161.89,109.32,164,128.58"/><path class="cls-9" d="M164.64,139.59v17.88"/><path class="cls-9" d="M166,238.64v11"/><path class="cls-9" d="M166.7,257.22c.44.8,4.58,8.63.69,16.51a17.2,17.2,0,0,1-7.57,7.56"/><path class="cls-9" d="M12.61,220.07v14.45"/><path class="cls-9" d="M11.92,244.84q-.35,16.16-.68,32.33"/><path class="cls-10" d="M20,313.4a41.23,41.23,0,0,1,7.8-2.76c3.92-1,5.88-1.44,7.56-.91,3.47,1.08,3.83,4.2,9.17,7.34a23.46,23.46,0,0,0,2.76,1.37"/><ellipse class="cls-11" cx="137.81" cy="226.72" rx="21.78" ry="20.87"/><ellipse class="cls-11" cx="71.51" cy="210.67" rx="15.56" ry="14.9"/></g></g></svg>