<svg xmlns="http://www.w3.org/2000/svg" viewBox="0 0 1151.8 853.52"><defs><style>.cls-1{fill:#231f20;}.cls-2,.cls-7{fill:#fff;}.cls-2{stroke:#fbb040;}.cls-2,.cls-5,.cls-6{stroke-miterlimit:10;}.cls-2,.cls-6{stroke-width:7px;}.cls-3{fill:#f7941d;}.cls-4{fill:#fbb040;}.cls-5,.cls-6{fill:none;stroke:#231f20;}.cls-5{stroke-width:8.75px;}.cls-8{fill:#39b54a;}</style></defs><g id="Layer_2" data-name="Layer 2"><g id="Layer_1-2" data-name="Layer 1"><rect class="cls-1" width="1151.8" height="853.52"/><polygon class="cls-2" points="305.73 530.75 247.86 525.03 281.75 477.77 305.73 530.75"/><path class="cls-3" d="M258.65,660.44H710.71a88.39,88.39,0,0,1,88.39,88.39V843.4a0,0,0,0,1,0,0H323.32a64.66,64.66,0,0,1-64.66-64.66V660.44A0,0,0,0,1,258.65,660.44Z"/><path class="cls-4" d="M494.44,639.2,228.78,485.82V745.15a27.38,27.38,0,0,0,41.07,23.71Z"/><polygon class="cls-1" points="494.04 638.56 449.12 612.62 449.12 664.49 494.04 638.56"/><line class="cls-5" x1="391.33" y1="653.49" x2="324.45" y2="653.49"/><line class="cls-5" x1="391.33" y1="668.46" x2="342.64" y2="709.12"/><line class="cls-5" x1="412.19" y1="670.07" x2="380.09" y2="734.27"/><path class="cls-6" d="M258.65,588.57c9.88,19.85,34.8,27.5,55.72,17.09"/><polygon class="cls-7" points="125.65 266.62 156.34 298.39 199.92 291.12 179.18 330.13 199.57 369.32 156.06 361.66 125.08 393.16 118.92 349.41 79.4 329.68 119.1 310.31 125.65 266.62"/><polygon class="cls-7" points="400.63 313.72 412.62 332.28 434.7 332.92 420.76 350.06 426.96 371.26 406.36 363.29 388.11 375.75 389.32 353.69 371.84 340.19 393.19 334.52 400.63 313.72"/><polygon class="cls-7" points="518.21 482.67 525.37 493.76 538.56 494.15 530.23 504.38 533.93 517.05 521.63 512.29 510.73 519.73 511.45 506.55 501 498.48 513.76 495.1 518.21 482.67"/><polygon class="cls-7" points="616.67 278.85 641.75 295.6 669.77 284.43 661.59 313.46 680.87 336.65 650.73 337.85 634.63 363.35 624.19 335.06 594.96 327.62 618.64 308.94 616.67 278.85"/><polygon class="cls-7" points="701.08 423.76 711.35 441.38 731.69 442.91 718.11 458.13 722.94 477.94 704.27 469.73 686.92 480.44 688.97 460.15 673.41 446.96 693.34 442.63 701.08 423.76"/><polygon class="cls-7" points="889.79 291.39 923.84 322.75 968.96 312.47 949.67 354.54 973.38 394.28 927.41 388.93 896.95 423.76 887.83 378.39 845.28 360.18 885.62 337.49 889.79 291.39"/><path class="cls-4" d="M852,493h57.37a0,0,0,0,1,0,0V795.2a48.2,48.2,0,0,1-48.2,48.2h-62a0,0,0,0,1,0,0V545.85A52.85,52.85,0,0,1,852,493Z"/><path class="cls-7" d="M866,516h23.38a0,0,0,0,1,0,0V671a31.18,31.18,0,0,1-31.18,31.18H834.81a0,0,0,0,1,0,0v-155A31.18,31.18,0,0,1,866,516Z"/><polygon class="cls-8" points="402.02 761.06 412.72 846.61 391.32 846.61 402.02 761.06"/><polygon class="cls-8" points="358.3 796.33 403.72 834.93 388.18 847.91 358.3 796.33"/><polygon class="cls-8" points="442.28 806.47 415.82 846.31 407.25 839.03 442.28 806.47"/><polygon class="cls-8" points="708.89 756.45 720.56 849.79 697.22 849.79 708.89 756.45"/><polygon class="cls-8" points="661.18 794.94 710.74 837.05 693.78 851.21 661.18 794.94"/><polygon class="cls-8" points="752.82 806 723.94 849.47 714.59 841.52 752.82 806"/></g></g></svg>