<svg xmlns="http://www.w3.org/2000/svg" viewBox="0 0 179.49 215.95"><defs><style>.cls-1{fill:#ef4136;stroke:#231f20;stroke-miterlimit:10;}</style></defs><g id="Layer_2" data-name="Layer 2"><g id="Layer_1-2" data-name="Layer 1"><path class="cls-1" d="M.65,60.45,21.74,18.87,67.6.52A108,108,0,0,0,81.05,2.66,90.8,90.8,0,0,0,97.26,3,86.94,86.94,0,0,0,111,.83L152.6,15.5a169.73,169.73,0,0,1,11.31,15.6,167.39,167.39,0,0,1,15,29.35,81.39,81.39,0,0,1-12.23,8.25A80.88,80.88,0,0,1,144.34,77c-.94-3.91-1.76-5.85-2.44-5.8q-5,.31-1.23,136.66a181,181,0,0,1-100.89.92c-2.64-82.47-2.5-116-1.18-125.32.21-1.49,1.47-9.5-.35-10.12-1-.34-2.6,1.63-4,3.66a142.09,142.09,0,0,1-17.73-7.33A143.8,143.8,0,0,1,.65,60.45Z"/></g></g></svg>