<svg xmlns="http://www.w3.org/2000/svg" viewBox="0 0 505.63 448.83"><defs><style>.cls-1,.cls-6{fill:#fff;}.cls-1,.cls-3,.cls-6{stroke:#231f20;}.cls-1,.cls-3,.cls-5,.cls-6{stroke-miterlimit:10;}.cls-1{stroke-width:2.6px;}.cls-2{fill:#c7c7c7;}.cls-3,.cls-4{fill:#231f20;}.cls-3{stroke-width:2.9px;}.cls-5{fill:none;stroke:#fff;stroke-width:2.97px;}.cls-6{stroke-width:5.81px;}</style></defs><g id="Layer_2" data-name="Layer 2"><g id="Layer_1-2" data-name="Layer 1"><path class="cls-1" d="M439.58,135.76A202.16,202.16,0,0,1,469.7,240.61c1.5,206.91-187.16,206.8-216,206.91-34.42.14-216,0-216-206.91A199.42,199.42,0,0,1,67.46,135.8a67.25,67.25,0,1,1,68.33-68.57,223.79,223.79,0,0,1,234.07-1,67.25,67.25,0,1,1,69.72,69.5Z"/><circle class="cls-2" cx="68.56" cy="69.45" r="36.96"/><circle class="cls-2" cx="437.07" cy="69.45" r="36.96"/><path class="cls-3" d="M355.68,190.52a14.93,14.93,0,0,1-5.12,5.09c-14.14,8.42-28.59,2.33-34-9l.93-2.44c3.06.63,6.4.14,10-.59a7.92,7.92,0,0,0,4.61-2.85c7.82-9.75,5.41-20.36-1.39-25.67a23.56,23.56,0,0,1,6.27-.87C353.93,154.23,366.48,172.67,355.68,190.52Z"/><path class="cls-3" d="M181.41,190.52a15.11,15.11,0,0,1-5.12,5.09c-14.14,8.42-28.6,2.33-34-9l.93-2.44c3.06.63,6.4.14,10-.59a8,8,0,0,0,4.62-2.85c7.82-9.75,5.4-20.36-1.4-25.67a23.61,23.61,0,0,1,6.27-.87C179.66,154.23,192.21,172.67,181.41,190.52Z"/><path class="cls-4" d="M222.16,241.46h0A23,23,0,0,1,242.05,207h17.73a23,23,0,0,1,19.9,34.46h0C266.89,263.6,234.94,263.6,222.16,241.46Z"/><path class="cls-5" d="M237.26,212.88c-.75,0-6,3.57-8.49,6.24-3.32,3.61-3.26,5.83-3.44,7.55-.31,3,1.94,5.52,3.11,6.66"/><path class="cls-6" d="M196,316.69c34.18,11.21,80.89,8.05,115.39-7.95"/></g></g></svg>