<svg xmlns="http://www.w3.org/2000/svg" viewBox="0 0 422.14 295.34"><defs><style>.cls-1{fill:#b34426;}.cls-2{fill:#f16131;}.cls-3{font-size:40.86px;fill:#231f20;}.cls-10,.cls-3{font-family:Impact;}.cls-4{font-size:15.93px;}.cls-10,.cls-12,.cls-4,.cls-5,.cls-9{fill:#fff;}.cls-4,.cls-5,.cls-8{font-family:MicrosoftSansSerif, Microsoft Sans Serif;}.cls-5{font-size:11.93px;}.cls-11,.cls-6,.cls-7{fill:none;}.cls-11,.cls-6{stroke:#fff;stroke-miterlimit:10;}.cls-8{font-size:13.2px;fill:#f7941d;}.cls-10{font-size:9.43px;}.cls-11{stroke-width:1.44px;}.cls-12{font-size:12.61px;font-family:FranklinGothic-Medium, Franklin Gothic Medium;font-weight:500;}.cls-13{letter-spacing:-0.01em;}</style></defs><g id="Layer_2" data-name="Layer 2"><g id="background"><rect class="cls-1" width="417.6" height="295.34"/><rect class="cls-2" x="179.68" y="0.44" width="242.46" height="293.96"/></g><g id="texts"><text class="cls-3" transform="translate(190.92 77.62)">Roses <tspan x="0" y="49.03">are Red</tspan></text><text class="cls-4" transform="translate(191.99 185.53)">Have you ever wondered why <tspan x="0" y="19.12">roses are red? Why they are </tspan><tspan x="0" y="38.24">not green blue yelow or black</tspan></text><text class="cls-5" transform="translate(193.24 35.49)">How to overthink</text><line class="cls-6" x1="191.21" y1="148.22" x2="417.17" y2="148.83"/><path class="cls-7" d="M28.61,39.37c6.18-6.93,14.91-11.94,24.19-12.16s18.85,5,22.41,13.56-.32,19.92-8.94,23.36c-5,2-10.76,1.35-15.64,3.58a14.37,14.37,0,0,0-4,23.45"/><text class="cls-8" transform="translate(54.46 54.95) rotate(-69.57)">S</text><text class="cls-8" transform="translate(57.57 47.06) rotate(-61.68)">t</text><text class="cls-8" transform="translate(59.09 43.98) rotate(-54.73)">o</text><text class="cls-8" transform="translate(63.11 38.25) rotate(-45.31)">p</text><text class="cls-8" transform="matrix(0.79, -0.62, 0.62, 0.79, 68.15, 33.29)"> </text><text class="cls-8" transform="translate(70.49 31.1) rotate(-29.13)">O</text><text class="cls-8" transform="matrix(0.94, -0.33, 0.33, 0.94, 79.18, 26.41)">v</text><text class="cls-8" transform="matrix(0.98, -0.21, 0.21, 0.98, 85.17, 24.28)">e</text><text class="cls-8" transform="matrix(0.99, -0.12, 0.12, 0.99, 92.15, 22.81)">r</text><text class="cls-8" transform="translate(96.38 22.3) rotate(-3.63)">t</text><text class="cls-8" transform="matrix(1, 0.02, -0.02, 1, 99.86, 21.98)">h</text><text class="cls-8" transform="translate(106.99 22.24) rotate(6.71)">i</text><text class="cls-8" transform="translate(109.75 22.43) rotate(12.88)">n</text><text class="cls-8" transform="translate(116.57 23.96) rotate(22.94)">k</text><text class="cls-8" transform="matrix(0.86, 0.52, -0.52, 0.86, 122.32, 26.51)">i</text><text class="cls-8" transform="translate(124.72 27.7) rotate(40.85)">n</text><text class="cls-8" transform="translate(129.91 32.14) rotate(54.42)">g</text><text class="cls-8" transform="matrix(0.46, 0.89, -0.89, 0.46, 133.9, 37.93)">.</text><text class="cls-8" transform="translate(135.48 41.03) rotate(67.6)"> </text><text class="cls-8" transform="translate(136.93 43.94) rotate(75.32)">O</text><text class="cls-8" transform="matrix(0.11, 0.99, -0.99, 0.11, 139.35, 53.59)">v</text><text class="cls-8" transform="translate(140.09 59.9) rotate(90.35)">e</text><text class="cls-8" transform="translate(139.98 67.03) rotate(95.95)">r</text><text class="cls-8" transform="translate(139.53 71.26) rotate(99.81)">t</text><text class="cls-8" transform="translate(139.04 74.68) rotate(105.09)">h</text><text class="cls-8" transform="translate(137.09 81.58) rotate(110.16)">i</text><text class="cls-8" transform="translate(136.22 84.25) rotate(115.31)">n</text><text class="cls-8" transform="translate(133.19 90.64) rotate(122.28)">k</text><text class="cls-8" transform="matrix(-0.6, 0.8, -0.8, -0.6, 129.7, 96.04)">i</text><text class="cls-8" transform="translate(128.09 98.35) rotate(131.94)">n</text><text class="cls-8" transform="matrix(-0.75, 0.66, -0.66, -0.75, 123.36, 103.63)">g</text><text class="cls-8" transform="translate(117.93 108.26) rotate(144.15)"> </text><text class="cls-8" transform="matrix(-0.86, 0.51, -0.51, -0.86, 115.26, 110.28)">k</text><text class="cls-8" transform="matrix(-0.9, 0.44, -0.44, -0.9, 109.75, 113.51)">i</text><text class="cls-8" transform="matrix(-0.92, 0.39, -0.39, -0.92, 107.14, 114.8)">l</text><text class="cls-8" transform="translate(104.44 115.94) rotate(159.16)">l</text><text class="cls-8" transform="translate(101.57 116.97) rotate(158.85)">s</text><text class="cls-8" transform="matrix(-0.88, 0.48, -0.48, -0.88, 94.71, 119.67)">.</text><text class="cls-8" transform="translate(90.44 122.14) rotate(138.5)"> </text><text class="cls-8" transform="matrix(-0.47, 0.88, -0.88, -0.47, 86.26, 125.91)">Y</text><text class="cls-8" transform="translate(81.98 134.7) rotate(107.92)">o</text><text class="cls-8" transform="translate(79.63 141.97) rotate(104.98)">u</text><text class="cls-8" transform="translate(77.73 149.25) rotate(102.93)">’</text><text class="cls-8" transform="translate(77.03 152.25) rotate(101.47)">r</text><text class="cls-8" transform="translate(76.09 156.78) rotate(99.15)">e</text><text class="cls-8" transform="translate(74.93 164.22) rotate(97.01)"> </text><text class="cls-8" transform="matrix(-0.07, 1, -1, -0.07, 74.4, 167.96)">O</text><text class="cls-8" transform="translate(73.67 178.51) rotate(90.93)">k</text><path class="cls-9" d="M57.49,54.37a47.24,47.24,0,0,1,7.87-15A48.85,48.85,0,0,1,71.29,33c1.08-1,2.25-1.88,3.41-2.8s2.43-1.7,3.72-2.45a42.72,42.72,0,0,1,8.15-3.82,41.8,41.8,0,0,1,8.93-2,43.92,43.92,0,0,1,9.17,0,42.08,42.08,0,0,1,9,2.08A37,37,0,0,1,122,28.15c.64.45,1.31.85,1.92,1.34L125.71,31A33.67,33.67,0,0,1,129,34.29a35.29,35.29,0,0,1,8,16.42c2.43,11.85-.57,24-6.72,33.5A64.74,64.74,0,0,1,119.49,97a91.8,91.8,0,0,1-13.16,10c-4.64,2.92-9.46,5.5-14.13,8.35a50.51,50.51,0,0,0-12.65,10.27,36.4,36.4,0,0,0-7.23,14.14,65,65,0,0,0-2.13,15.42c-.17,5.16-.07,10.31.07,15.56-.53,5.26,2.87,10.5-6.25,16.21l-.92,0c-9.39-5.23-6.25-10.93-6.48-16.6a74.25,74.25,0,0,1,3.19-17.09,65.51,65.51,0,0,1,7.54-15.84,58.85,58.85,0,0,1,11.31-12.73,121,121,0,0,1,13.54-9.37c4.65-2.88,9.41-5.6,13.88-8.73,8.91-6.26,16.58-14.48,21.15-24.07a43,43,0,0,0,4.1-15,39.44,39.44,0,0,0-.1-7.61,37,37,0,0,0-1.5-7.31,35.73,35.73,0,0,0-3-6.63,26.91,26.91,0,0,0-4.3-5.59,30.41,30.41,0,0,0-11.94-7.29,42.43,42.43,0,0,0-7-1.6,43.51,43.51,0,0,0-7.22-.23,37.67,37.67,0,0,0-7.14,1.14,41.65,41.65,0,0,0-7,2.45,45.28,45.28,0,0,0-6.64,3.64,53.83,53.83,0,0,0-6.22,4.62,70.37,70.37,0,0,0-5.74,5.48c-.91,1-1.84,2-2.68,3s-1.71,2.11-2.6,3.18Z"/><text class="cls-10" transform="translate(54.7 218.27) rotate(-24.69)">N</text><text class="cls-10" transform="translate(59.11 216.23) rotate(-15.06)">o</text><text class="cls-10" transform="matrix(0.99, -0.13, 0.13, 0.99, 63.57, 215.08)">t</text><text class="cls-10" transform="translate(66.29 214.74) rotate(-3.11)"> </text><text class="cls-10" transform="translate(67.73 214.4) rotate(5.98)">W</text><text class="cls-10" transform="translate(75.02 215.28) rotate(18.32)">h</text><text class="cls-10" transform="translate(79.49 216.77) rotate(27.16)">y</text><text class="cls-10" transform="translate(51.25 265.62) rotate(32.39)">N</text><text class="cls-10" transform="translate(56.3 268.72) rotate(20.8)">o</text><text class="cls-10" transform="matrix(0.98, 0.2, -0.2, 0.98, 61.48, 270.54)">t</text><text class="cls-10" transform="translate(64.71 271.15) rotate(5.93)"> </text><text class="cls-10" transform="translate(66.94 271.46) rotate(-2.34)">H</text><text class="cls-10" transform="matrix(0.97, -0.25, 0.25, 0.97, 73.06, 271.1)">o</text><text class="cls-10" transform="translate(78.65 269.61) rotate(-27.84)">w</text><rect class="cls-11" x="31.91" y="224.72" width="77.99" height="26.76"/><text class="cls-12" transform="translate(36.31 242.83)">DO N<tspan class="cls-13" x="27.71" y="0">O</tspan><tspan x="35.67" y="0">T ASK</tspan></text></g></g></svg>