<svg xmlns="http://www.w3.org/2000/svg" viewBox="0 0 352.9 434.67"><defs><style>.cls-1{fill:#f7b377;}.cls-1,.cls-2,.cls-3,.cls-4,.cls-5,.cls-7{stroke:#231f20;stroke-miterlimit:10;}.cls-2{fill:none;}.cls-3{fill:#d19764;}.cls-4{fill:#ffb99e;}.cls-5{fill:#f9e8dc;}.cls-6{fill:#4b2a21;}.cls-7{fill:#231f20;}</style></defs><g id="Layer_2" data-name="Layer 2"><g id="face"><path class="cls-1" d="M334.44,276.11a28.1,28.1,0,0,1-.39,4.81,23.65,23.65,0,0,1-3.74,9,17,17,0,0,1-3.67,3.52,19.62,19.62,0,0,1-8.56,3.51,44.38,44.38,0,0,1-4.59,1.07,48.54,48.54,0,0,1-13.71.53l-6.77-2.9-3.29-2.75a81.66,81.66,0,0,1-6.8-7.56,77.44,77.44,0,0,1-5.58-8,31.56,31.56,0,0,1-3.29-6.34,21.62,21.62,0,0,1-1.45-4.21c-.08-.7-.13-1.85-.84-2.21a1.26,1.26,0,0,0-.84-.08c.06,2.47.08,4.68.08,6.57,0,.93,0,3.22-.08,6.19,0,1.87-.1,3.5-.15,4.82-12.24-5.83-20.92-5-25.68-3.82s-7.59,3.1-22,12.38c-7.66,4.93-13.76,8.82-17.19,11-3.46,1.32-9.83,4.39-13.76,11-3,5.07-3.2,9.88-3.44,19.26a120.41,120.41,0,0,0,1.45,21.94l-34.09.69a43.9,43.9,0,0,0,8.56-23.31c1-19.65-12.78-35.41-24.76-42.65-9.5-5.74-19.55-7.15-27.52-8.26a96.5,96.5,0,0,0-19.95-.69c-.51-6.13-1.06-14.08-1.37-23.38-1.14-33.33,2.11-41.75,4.81-46.78a56.65,56.65,0,0,1,13.07-15.14,47.25,47.25,0,0,1,15.52-7.87c-.73-3.8-1.28-9.52-1.14-18.85a129.81,129.81,0,0,1-12.77-6.41c.21-.36-1-1.55-3.56-3.55a80.16,80.16,0,0,1-7.56-8.95,86,86,0,0,1-10.09-18.45,78.59,78.59,0,0,1-4.47-18.12A175.17,175.17,0,0,1,83.89,77L71.16,65.92A47.19,47.19,0,0,1,66,55.37c-.8-2.34-5.71-17.52,1.26-33.94C69.2,16.87,71.76,10.86,78,6.76c3.78-2.48,7.48-3.32,12.39-4.44A45,45,0,0,1,105.67,1.1a34.24,34.24,0,0,1,10.4,2.45,33.2,33.2,0,0,1,8,4.74c2.83,2.26,3.46,6,5.8,6a3.91,3.91,0,0,0,1.23-.31c3-1,4.48-2.64,6.65-4a36.69,36.69,0,0,1,4.58-2.14,68.81,68.81,0,0,1,13.53-4.59c1.88-.39,1.31-.16,6.35-1.07S167.9,1,169.57.72c3.08-.42,5.53-.23,10.93.53a174.68,174.68,0,0,1,20.1,3.6,111,111,0,0,1,14.75,4.51,101.77,101.77,0,0,1,12.92,6.11,19.18,19.18,0,0,1,1.15-1.6c8-10.16,24.05-10,32-9.41a24.72,24.72,0,0,1,7.49,1.23c15.77,5.21,20.76,25.18,21.33,27.44a51,51,0,0,1,1.14,6.65A48.49,48.49,0,0,1,291,51.93c-1.83,10-8.67,17.36-11.08,19.8l-9.55,6.34c0,.66.07,1.73.15,3.06.25,4.17.61,7.21.69,7.87.62,5.74-.79,14-1.76,19.72a160.56,160.56,0,0,1-3.75,16.59l-2.9,7.41a63.25,63.25,0,0,1-5.35,11c-5.4,8.8-12.9,12.52-11.93,14.21.22.38.69.36,1.76.54,2.06.33,4,1.26,8,3.13a66.17,66.17,0,0,1,9.4,5.5,186.62,186.62,0,0,1,21.09,17A164.8,164.8,0,0,1,304,204.87l12.15,18.58c2.54,4.6,5.06,9.19,7.6,13.8l5.42,11.88c.81,2.48,2.13,6.48,2.94,9v.06c.63,3,.89,4,1.15,5.19A56.25,56.25,0,0,1,334.44,276.11Z"/><path class="cls-2" d="M129.82,14.25l-45,59.69"/><path class="cls-2" d="M228.27,15.47l42.12,62.6"/><path class="cls-2" d="M245.54,157.94a131.47,131.47,0,0,1-30.38,14.26A129.13,129.13,0,0,1,175,178.5h-.06l-1.55,0a130.37,130.37,0,0,1-50.11-10.88"/><path class="cls-3" d="M271.76,264.57l-1,17.5c-12.24-5.83-20.92-5-25.68-3.82s-7.59,3.1-22,12.38c-7.66,4.93-13.76,8.82-17.19,11-3.46,1.32-9.83,4.39-13.76,11-3,5.07-3.2,9.88-3.44,19.26a120.41,120.41,0,0,0,1.45,21.94l-34.09.69a43.9,43.9,0,0,0,8.56-23.31c1-19.65-12.78-35.41-24.76-42.65-9.5-5.74-19.55-7.15-27.52-8.26a96.5,96.5,0,0,0-19.95-.69c-.51-6.13-1.06-14.08-1.37-23.38-1.14-33.33,2.11-41.75,4.81-46.78a56.65,56.65,0,0,1,13.07-15.14,47.25,47.25,0,0,1,15.52-7.87c20.51-6.6,53-7.3,92-1.71q7.35,1,15,2.41a35.87,35.87,0,0,1,25.4,18.32,126.09,126.09,0,0,1,15,59.1Z"/><path class="cls-2" d="M89.62,280.08a67.29,67.29,0,0,1-8.71,9.17,68.38,68.38,0,0,1-22,12.84"/><path class="cls-4" d="M217.11,192.26l-5.5.46a177.51,177.51,0,0,1-17.43,16.05c-7.06,5.68-9.33,6.59-11.16,5.89-2.46-1-2.73-4.33-6.11-17.74-2.48-9.8-3.26-11.65-4-11.61-.31,0-.93.4-2.75,11-.77,4.5-1.43,8.91-2.75,14.37-1.63,6.7-2.41,7.36-3.06,7.64-3,1.32-6.71-3.63-13.14-7.64a43.1,43.1,0,0,0-18.65-6.11,8.28,8.28,0,0,1-.31-5.2,8.42,8.42,0,0,1,3.67-4.89l-7.64,2.75a43.06,43.06,0,0,1-2.45-5.5,33.18,33.18,0,0,1-1.45-5.28c-.73-3.8-1.28-9.52-1.14-18.85.06-3.74.24-8.76.76-14.7a60.1,60.1,0,0,1,9.51,1.64c6.69,1.71,11.2,4.11,19.95,8.83,6.34,3.42,9.59,5.2,13.3,8.37a53.16,53.16,0,0,1,6.59,6.74l.75.94.86-.92,6.82-7.34,6.88-7.79,24.76-8.94q.87,8.88,1.72,17.77.61,6.27,1.22,12.54C216.62,187.25,216.87,189.75,217.11,192.26Z"/><path class="cls-5" d="M144.88,101.92a38.91,38.91,0,0,1,8.49-2.76A57.49,57.49,0,0,1,170.79,98c17.25,1,25.87,1.49,29.58,3.44,2.85,1.49,12.85,7.27,16.51,19.49a30.06,30.06,0,0,1-17.2,36.91,45.37,45.37,0,0,1-14.21,6.42,47.56,47.56,0,0,1-28-1.6,51.13,51.13,0,0,1-22.93-16.51,23.15,23.15,0,0,1-4.81-6,25.32,25.32,0,0,1-2.52-16.74C129.73,109.42,143,102.83,144.88,101.92Z"/><path class="cls-2" d="M144.42,146.63a45.27,45.27,0,0,0,8,6c1.19.69,9.5,5.42,18.8,6,17,1,29.68-12.53,31.42-14.44"/><path class="cls-6" d="M172.17,112.92a25.5,25.5,0,0,0-9.63,3.21,32,32,0,0,0-8.94,7.11,19.3,19.3,0,0,0,2.52,6.65c4.82,7.88,13.88,9.51,16.51,9.86s7.83,1,13.07-2.06c1.71-1,6.58-3.9,7.33-9.41.82-6-3.81-10.28-4.58-11-3.17-3-6.93-3.67-9.4-4.13A24,24,0,0,0,172.17,112.92Z"/><path class="cls-2" d="M172.63,157q-.12-7.92-.23-15.82"/><circle class="cls-7" cx="143.85" cy="91.94" r="8.37"/><circle class="cls-7" cx="202.67" cy="92.86" r="8.37"/><path class="cls-1" d="M164.6,331.22A43.9,43.9,0,0,1,156,354.53a14,14,0,0,1-2.29,4.43,13.75,13.75,0,0,1-4.27,3.64c.15,1.68.22,3.37.22,5.07,0,36.73-33.4,66.5-74.6,66.5S.5,404.4.5,367.67c0-29.88,22.12-55.16,52.57-63.54l-3.92-.54-6.08-.35a7,7,0,0,1-4-1.37,7.32,7.32,0,0,1-2.75-5.13l-10-15-.29-1c.08-2.8.16-5.61.23-8.41l-.84-1.68.69-10.16c.35-1.91.9-4.64,1.76-7.88,3.21-12.08,8.17-21.69,16.39-34.47a360.35,360.35,0,0,1,28-37.72c1.45-1.37,3.47-3.21,6-5.27a94.88,94.88,0,0,1,13-9.29,83.3,83.3,0,0,1,13.64-6.42c3.51,1.54,5.39,2.11,5.62,1.72a129.81,129.81,0,0,0,12.77,6.41c-.14,9.33.41,15.05,1.14,18.85a47.25,47.25,0,0,0-15.52,7.87,56.65,56.65,0,0,0-13.07,15.14c-2.7,5-6,13.45-4.81,46.78.31,9.3.86,17.25,1.37,23.38a96.5,96.5,0,0,1,19.95.69c8,1.11,18,2.52,27.52,8.26C151.82,295.81,165.62,311.57,164.6,331.22Z"/><path class="cls-1" d="M352.4,363.16c0,36.65-32.31,66.35-72.16,66.35-33.62,0-61.88-21.15-69.89-49.79a5.35,5.35,0,0,1-2.33-2.19c-2.71-4.22-8.23-6.83-14.68-17.65-.85-1.43-2-3.48-3.21-6a120.41,120.41,0,0,1-1.45-21.94c.24-9.38.42-14.19,3.44-19.26,3.93-6.61,10.3-9.68,13.76-11,3.43-2.19,9.53-6.08,17.19-11,14.43-9.28,17.24-11.22,22-12.38s13.44-2,25.68,3.82l11.08,6.65q2.49,1.62,5,3.44c2.82,2,5.47,4,7.94,6C327.69,304.38,352.4,331.12,352.4,363.16Z"/><path class="cls-1" d="M54.92,302.7,92.32,279"/></g></g></svg>