<svg xmlns="http://www.w3.org/2000/svg" viewBox="0 0 234.07 213.84"><defs><style>.cls-1{fill:gray;}</style></defs><g id="Layer_2" data-name="Layer 2"><g id="Layer_1-2" data-name="Layer 1"><path class="cls-1" d="M230.22,94c-.63-.54-4.14-3.63-7.8-2.29A6.42,6.42,0,0,0,218.29,97c-.22,3.75,4.19,5.86,3.44,7.56-.61,1.4-4.34,1.69-7.57.69-8-2.51-7.5-11.42-13.75-14-7.18-2.94-21.33,3.28-22,13.3-.39,5.83,3.85,11.81,10.32,15.14,2.73,11.12,5,28.83-2.06,47.46-2.64,7-11,28.93-25.45,29.58-6.13.28-11.27-3.33-14.45-6.19,8.23-9.21,17.16-22.58,20.18-39.67,2.12-12-.22-17.14-1.61-19.49-4.43-7.53-13.86-11.78-22-11-15.7,1.49-25.64,21.54-26.14,35.77-.18,5,.82,9.69,1.83,14.45a90.55,90.55,0,0,0,7.8,22c-.94.75-8.84,6.85-17.2,4.13-8.08-2.62-10.83-11.61-12.15-15.94-1.69-5.53-1.55-10.3-.92-16.39a162.46,162.46,0,0,1,6.88-33c4.41-12.45,7.15-16.54,15.14-34.39,5-11.23,8.82-20.52,11.23-26.6a240.49,240.49,0,0,0,27.29-1.61,76.21,76.21,0,0,0,12.24-2.32,58.28,58.28,0,0,0,11.83-4.56,54,54,0,0,0,12-8.56A83.53,83.53,0,0,0,208,0,95.28,95.28,0,0,1,183.9,17.89c-17.47,9-35,10.87-53.66,12.84-9,.95-18,2.13-27.06,3-7.43.7-14,1.21-22.27,4.32-1.12.42-3,1.17-10.75,5.08-10.25,5.18-15.37,7.77-19.94,10.55C43.51,57.72,32.38,64.6,21.86,77.05A108.56,108.56,0,0,0,11.69,91.49C7,99.39,2.92,106.48.92,116.72a59.66,59.66,0,0,0,1.37,26.82c2.52,8.75,5.85,12.3,7.11,13.53a25.05,25.05,0,0,0,10.09,6l25-21.78c-1.92-.59-12.1-3.86-18-11.08a31,31,0,0,1-4.2-6.88,27.63,27.63,0,0,1-1.84-7.18,28.43,28.43,0,0,1,.69-10.17c.92-5.59,4.05-19.59,16.05-28.43,5.56-4.1,11-5.62,17.43-7.34a90.13,90.13,0,0,1,32.56-2.52Q83.4,85.86,78.2,105.28c-1.43,5.29-2.93,10.5-2.93,10.5-.27.81-.47,1.45-.62,2,0,0-.26.9-.49,1.83-.82,3.26-1.47,6.92-1.47,6.92-1,5.56-1,4.8-1.91,9.94-.83,4.75-1,6.33-1.62,9.75-.53,3-.66,3.41-1.14,7a84.77,84.77,0,0,0-.84,17.89c.26,3.77,1.62,23.14,17.2,34.85a37.12,37.12,0,0,0,50.22-4.12A39,39,0,0,0,152,212.33a38.33,38.33,0,0,0,22-.23c9.74-3.14,15.2-9.59,21.09-16.74,11.87-14.4,16.13-29,18.35-36.91a119.41,119.41,0,0,0,4.35-35.09,21.4,21.4,0,0,0,9.17-4.58,19.19,19.19,0,0,0,6.88-11.92C234.05,105.6,235,98.24,230.22,94ZM138.5,176.22a75.89,75.89,0,0,1-3.21-14.33c-1.18-9.46.3-12.35,1-13.53.36-.59,3.37-5.35,7.22-4.82,2.76.38,4.61,3.29,5.27,5.51,1,3.34-.33,6.26-2.75,11.35C142.32,168.27,139.79,173.52,138.5,176.22Z"/></g></g></svg>