<svg xmlns="http://www.w3.org/2000/svg" viewBox="0 0 462.38 354.4"><defs><style>.cls-1,.cls-11,.cls-15,.cls-2,.cls-3,.cls-4,.cls-5{fill:none;}.cls-1{stroke:#f95a80;}.cls-1,.cls-10,.cls-11,.cls-12,.cls-13,.cls-14,.cls-15,.cls-2,.cls-3,.cls-4,.cls-5,.cls-6,.cls-7,.cls-8,.cls-9{stroke-miterlimit:10;}.cls-1,.cls-2,.cls-3,.cls-4,.cls-5{stroke-width:21.6px;}.cls-2{stroke:#bc4ed6;}.cls-3{stroke:#59b2c7;}.cls-4{stroke:#5ebe62;}.cls-5{stroke:#d68e58;}.cls-6,.cls-7{fill:#99cbff;}.cls-10,.cls-11,.cls-12,.cls-13,.cls-14,.cls-15,.cls-6,.cls-7,.cls-8,.cls-9{stroke:#231f20;}.cls-6{stroke-width:1.2px;}.cls-7{stroke-width:1.43px;}.cls-8{fill:#72b1db;}.cls-10,.cls-11,.cls-12,.cls-13,.cls-14,.cls-8,.cls-9{stroke-width:2.16px;}.cls-9{fill:#ffe3c5;}.cls-10{fill:#f9a0e8;}.cls-12{fill:#eace44;}.cls-13{fill:#db5e8f;}.cls-14{fill:#fff;}.cls-15{stroke-width:1.19px;}</style></defs><g id="Layer_2" data-name="Layer 2"><g id="clouds"><path class="cls-1" d="M445.84,286.54a175.89,175.89,0,0,0,2.83-31.49c0-101.63-86.85-184-194-184s-194,82.38-194,184a175.89,175.89,0,0,0,2.83,31.49"/><path class="cls-2" d="M428.46,286.54a157.09,157.09,0,0,0,3-30.77c0-92.32-79.77-167.16-178.17-167.16S75.14,163.45,75.14,255.77a157.09,157.09,0,0,0,3,30.77"/><path class="cls-3" d="M415,286.54a140.35,140.35,0,0,0,3.45-31c0-83.49-73.46-151.17-164.07-151.17S90.28,172.07,90.28,255.56a140.35,140.35,0,0,0,3.45,31"/><path class="cls-4" d="M401.59,286.54a128,128,0,0,0,3.75-30.8c0-76.17-67.14-137.92-150-137.92s-150,61.75-150,137.92a128,128,0,0,0,3.75,30.8"/><path class="cls-5" d="M120.84,284.54a114.76,114.76,0,0,1-3.73-29.08c0-69.14,61.59-125.2,137.58-125.2s137.58,56.06,137.58,125.2a114.76,114.76,0,0,1-3.73,29.08"/><path class="cls-6" d="M461.78,282.13c0,6.6-4.06,12.75-15.08,12.75-.95,0-1.88,0-2.79-.12-3.66,2.49-9,4.06-15,4.06a32.41,32.41,0,0,1-5.39-.44c-2.91,4.44-9.08,7.5-17.53,7.5-8,0-16-2.76-19.17-6.84a30.9,30.9,0,0,1-9.77,1.53c-8.71,0-16.12-3.34-18.85-8-3.11,4-9,6.68-16.93,6.68s-16-2.76-19.18-6.85a30.51,30.51,0,0,1-9.76,1.53c-11,0-20-5.35-20-11.95a5.84,5.84,0,0,1,.08-1c-6.88-1.88-11.66-6-11.66-10.86,0-5.44,6.09-10,14.41-11.48,1.44-5.75,9.74-10.16,19.75-10.16A28,28,0,0,1,329.12,252a28.52,28.52,0,0,1,13.4-3.09c7.55,0,14.12,2.51,17.52,6.21a33.29,33.29,0,0,1,5-.37,31.72,31.72,0,0,1,8.12,1,32,32,0,0,1,6.55-.66,27.88,27.88,0,0,1,14.16,3.52,28.52,28.52,0,0,1,13.4-3.09c7.55,0,14.13,2.51,17.52,6.21a32.12,32.12,0,0,1,5-.38c9.76,0,17.88,4.19,19.62,9.73C459.13,271.86,461.78,276.07,461.78,282.13Z"/><path class="cls-7" d="M.72,286.72C.72,294.63,5.58,302,18.78,302a33.28,33.28,0,0,0,3.34-.14c4.38,3,10.8,4.86,17.94,4.86a38.58,38.58,0,0,0,6.46-.53c3.48,5.32,10.87,9,21,9,9.61,0,19.15-3.31,23-8.2a36.76,36.76,0,0,0,11.7,1.84c10.43,0,19.31-4,22.58-9.59,3.72,4.78,10.79,8,20.27,8s19.17-3.31,23-8.21a36.61,36.61,0,0,0,11.69,1.83c13.21,0,23.91-6.4,23.91-14.31a7.16,7.16,0,0,0-.09-1.22c8.24-2.25,14-7.22,14-13,0-6.51-7.29-12-17.26-13.75-1.72-6.88-11.66-12.16-23.65-12.16a33.55,33.55,0,0,0-17,4.21,34.15,34.15,0,0,0-16-3.7c-9,0-16.91,3-21,7.44a39.54,39.54,0,0,0-5.95-.45,38,38,0,0,0-9.73,1.24,37.89,37.89,0,0,0-7.84-.79,33.37,33.37,0,0,0-17,4.21,34.15,34.15,0,0,0-16-3.7c-9,0-16.92,3-21,7.44a38.54,38.54,0,0,0-6-.45c-11.69,0-21.41,5-23.5,11.65C3.89,274.42.72,279.46.72,286.72Z"/><path class="cls-8" d="M287.15,201.85c4.11-1.29,8.52-2.83,13.15-4.68l1.59-.64a80.94,80.94,0,0,0,23.71-15.28c7.77-6.9,25.25-18.27,40.69-19.75,5.25-.51,22.89-1.08,44.59,20.21-5.32-1.88-25.72-8.49-42.95.08a29.16,29.16,0,0,0-11.69,9.63c-3.21,4.65-7.63,14.26-4.22,18.83,5.32,7.12,24-7.95,44-2.38,16.57,4.61,28.25,16.87,36.27,28.54-32.75-1.53-40.69.23-41,2.38-.39,2.5,11.3,4.11,17.83,14.26,3.82,5.94,4.46,12.55,4.23,17.77a25.48,25.48,0,0,0-5.28-6.6c-11.83-10.52-29.69-5.92-32.24-5.22a93.34,93.34,0,0,1,7.53,15.43c1.95,5.26,3.17,9.54,3.17,9.54a109.3,109.3,0,0,0-14.86-12.19c-29.19-19.9-62.22-21.48-84.49-19.61"/><path class="cls-8" d="M266.58,78.38c-1,1.82-10.56-3-12.61-.23-1.44,1.94,2.13,5.72,5.08,10.13A22.87,22.87,0,0,1,262,94c3.76,12-10.75,26.89-30.72,41.08a82,82,0,0,1-13,1.74,73.53,73.53,0,0,1-27-3.84c-1.75,7.66-2.74,14.08-3.34,18.59-.49,3.74-.83,7.16-1,10.29-15.23,8.14-28.8,14.62-36.15,18.13l-.25.12c-4.62,2.19-13.34,6.08-23.6,4-11.71-2.37-19.18-11.27-22.47-15.82l13.76.46L104.47,158.4c-.15-1.6-.31-3.21-.46-4.81l-5-5.74c24.82-2.89,30.18-5.82,30.26-8,.12-3-9.7-4.37-20.86-14.45a61.49,61.49,0,0,1-7.8-8.48c1.48.59,13.48,5.3,15.59,2.06.37-.55,1.1-2.36-2.75-7.56,6.42-.12,13.84-1.06,15.37-5.05,2.49-6.52-12.22-17.25-10.09-20.18,1.4-1.92,7.87,2.63,17.19,1.84A29.33,29.33,0,0,0,149.64,83a53,53,0,0,1-34.39-24.07c20.17,6.27,35.66,6.92,39,.79a7,7,0,0,0,.5-4.85.85.85,0,0,1,1.34-.85,21.63,21.63,0,0,0,11,4.45c7.1.68,13-2.74,18.11-5.73,7.28-4.25,7-6.55,12.39-8.26,6.11-2,8.77,0,15.59-.46,11.47-.8,13.37-7.71,21.78-8.25,17.28-1.12,33.67,17.65,31.64,21.32-1.89,3.44-20.36-5.56-22.47-1.83S268.33,75.28,266.58,78.38Z"/><path class="cls-9" d="M253.26,343.53c-.23.62-.45,1.2-.68,1.75-1.33,3.32-2.49,5.32-3,5.2-.27-.07.24-1.89.2-5.2,0-.43,0-.89,0-1.37a34.09,34.09,0,0,0-1.07-6.58c-4-16.16-6.31-25.32-11.92-38.21l-.34-.78c1.71-.3,3.4-.63,5.06-1a186.46,186.46,0,0,1,9.19,30.52C251.84,333.35,252.67,338.6,253.26,343.53Z"/><path class="cls-9" d="M168.21,334.77l1.44,8.05c-.1.86-.24,1.69-.39,2.46-.61,3.06-1.57,5.38-2.72,6.49-.15-1.3.8-3.89,1.56-6.49h-3.52a17.89,17.89,0,0,0,.54-3.61,17.64,17.64,0,0,0-1-6.05c-1.27-4.6-3.74-19.54-8.49-55.4,1.49,1.25,3.07,2.46,4.73,3.61L174.2,291c0,.18,0,.36,0,.55.34,15.13-1.68,31-6,43.26Z"/><path class="cls-9" d="M260.82,290.94c-.12.69-.23,1.37-.35,2.06,4.29,14.35,4,25.16,3.52,30.88a96.83,96.83,0,0,1-1.69,10.7,95.44,95.44,0,0,1-2.95,10.7h-5.88l-.21-1.75c-.59-4.93-1.42-10.18-2.57-15.68a186.46,186.46,0,0,0-9.19-30.52c-1.66.38-3.35.71-5.06,1A115,115,0,0,1,216.88,300,109.2,109.2,0,0,1,179,293.45L174.2,291l-13.81-7.12c-1.66-1.15-3.24-2.36-4.73-3.61-10.91-9.11-17.44-20.71-17.44-33.34a36.5,36.5,0,0,1,.68-7l-.37-.08,12-59.69,14.6-72.6v-.26c0-7.16,4.58-13.72,12.18-18.83a47.57,47.57,0,0,1,5.07-3,61.76,61.76,0,0,1,7.49-3.19c1.61-.57,3.27-1.08,5-1.55a88.84,88.84,0,0,1,23.4-3c16.38,0,31,4.12,40.78,10.62,7.71,5.12,12.35,11.72,12.35,18.94,0,12.31-19.9,23.57-40.12,27.83a82,82,0,0,1-13,1.74,73.53,73.53,0,0,1-27-3.84c-1.75,7.66-2.74,14.08-3.34,18.59-.49,3.74-.83,7.16-1,10.29-1.57,23,3.59,30.35,5.55,32.8.53.66,1,1.18,1.27,1.48a113.7,113.7,0,0,1,23.12-2.34c43.44,0,83.18-18.17,78.66,53.11C294.38,265.18,281.76,281.39,260.82,290.94Z"/><path class="cls-9" d="M179,293.45c0,.15,0,.78,0,.93-1.44,26.83-1.88,42.59-4.68,50.9h-5.05c-.61,3.06-1.57,5.38-2.72,6.49-.15-1.3.8-3.89,1.56-6.49a14.49,14.49,0,0,0,.87-5.53c0-.12-.16-1-.38-2.49-.13-.83-.25-1.66-.38-2.49h0q-3.92-25.47-7.82-50.93L174.2,291Z"/><path class="cls-9" d="M177.89,89.67c-1.21-1.66-.77-4.25.15-9.35,1.2-6.61,2.15-11.86,4.9-12.46s5.87,3.8,8.31,7.27c3.22,4.57,6.22,8.82,4.75,12.31C193.67,92.94,181.21,94.18,177.89,89.67Z"/><path class="cls-10" d="M182.35,89.57c-.73-.77-.47-2,.09-4.36.72-3.08,1.29-5.53,2.94-5.81s3.53,1.77,5,3.39c1.94,2.13,3.75,4.11,2.86,5.74C191.84,91.1,184.34,91.67,182.35,89.57Z"/><path class="cls-11" d="M198,97.64c1.06,1.49,5.82,7.82,14.22,9.17,8.7,1.39,17.8-3.13,22.93-11.47"/><path class="cls-11" d="M228.78,121.6c.53,1.05,2.89,5.51,7.05,6.46,4.32,1,8.83-2.2,11.37-8.08"/><path class="cls-11" d="M204.06,65.84a23.1,23.1,0,0,1,10.09-3.36,24.08,24.08,0,0,1,15.9,4.58"/><path class="cls-12" d="M226.15,64.69c-1.75-.72-4.32-2.12-7.65-2.28a24.06,24.06,0,0,0-9.93,1.29c1.33-19.16,2.55-37.87,3.88-57a6.17,6.17,0,0,1,5.14-5.56c.44.14,3.93,1.31,4.57,4.18a4.58,4.58,0,0,1,.08,1.38C223.57,25.83,224.81,45.54,226.15,64.69Z"/><path class="cls-13" d="M174.31,345.28c-1.09,3.2-2.52,5.29-4.49,6.5-.21.12-2.22,1.34-3,.69a1,1,0,0,1-.3-.7c1.15-1.11,2.11-3.43,2.72-6.49Z"/><path class="cls-13" d="M166.54,351.77a2.33,2.33,0,0,1-1.42.73,2,2,0,0,1-1.52-.52c-1.15-1.15.17-3.43,1-6.7h3.52C167.34,347.88,166.39,350.47,166.54,351.77Z"/><path class="cls-11" d="M169.26,345.28c-.61,3.06-1.57,5.38-2.72,6.49-.15-1.3.8-3.89,1.56-6.49Z"/><path class="cls-13" d="M259.35,345.28c-.87,2.57-1.74,4.83-2.55,6.73a1.57,1.57,0,0,1-2,1.22,1.53,1.53,0,0,1-.76-1.83c-.16-2-.34-4-.58-6.12Z"/><path class="cls-11" d="M252.58,345.28c-1.33,3.32-2.49,5.32-3,5.2-.27-.07.24-1.89.2-5.2Z"/><path class="cls-14" d="M179,293.45q-2.47-.92-4.83-1.95a79.64,79.64,0,0,1-13.82-7.67L174.2,291Z"/><line class="cls-15" x1="200.32" y1="100.91" x2="197.05" y2="103.13"/><line class="cls-15" x1="202.87" y1="103.5" x2="199.69" y2="106.2"/><line class="cls-15" x1="206.39" y1="105.81" x2="203.45" y2="108.84"/><line class="cls-15" x1="208.04" y1="111" x2="210.29" y2="107.18"/><line class="cls-15" x1="234.12" y1="98.25" x2="237.39" y2="100.48"/><line class="cls-15" x1="231.57" y1="100.85" x2="234.75" y2="103.54"/><line class="cls-15" x1="228.05" y1="103.16" x2="230.99" y2="106.19"/><line class="cls-15" x1="226.39" y1="108.34" x2="224.15" y2="104.53"/><line class="cls-15" x1="214.37" y1="107.35" x2="213.8" y2="111.55"/><line class="cls-15" x1="221.07" y1="107.28" x2="222.47" y2="110.55"/><line class="cls-15" x1="217.74" y1="107.72" x2="218.31" y2="111.4"/></g></g></svg>