<svg xmlns="http://www.w3.org/2000/svg" xmlns:xlink="http://www.w3.org/1999/xlink" viewBox="0 0 597.09 615.44"><defs><style>.cls-1{fill:url(#radial-gradient);}.cls-2{fill:#231f20;}.cls-3{fill:#00aeef;}.cls-4{fill:#804b48;}.cls-5{fill:#0075a2;}.cls-6{fill:#bde7fa;}.cls-7{fill:url(#radial-gradient-2);}.cls-8{fill:url(#radial-gradient-3);}.cls-9{fill:url(#radial-gradient-4);}.cls-10{fill:url(#radial-gradient-5);}.cls-11{fill:url(#radial-gradient-6);}.cls-12{fill:url(#radial-gradient-7);}</style><radialGradient id="radial-gradient" cx="299" cy="199.95" r="327.76" gradientTransform="translate(0 134.38) scale(1 0.87)" gradientUnits="userSpaceOnUse"><stop offset="0" stop-color="#fff"/><stop offset="0.59" stop-color="#2c2969"/></radialGradient><radialGradient id="radial-gradient-2" cx="238.39" cy="124.74" r="6.28" gradientTransform="matrix(1, 0, 0, 1, 0, 0)" xlink:href="#radial-gradient"/><radialGradient id="radial-gradient-3" cx="221.42" cy="152.72" r="6.28" gradientTransform="matrix(1, 0, 0, 1, 0, 0)" xlink:href="#radial-gradient"/><radialGradient id="radial-gradient-4" cx="368.43" cy="126.52" r="4.29" gradientTransform="matrix(1, 0, 0, 1, 0, 0)" xlink:href="#radial-gradient"/><radialGradient id="radial-gradient-5" cx="388.61" cy="150.37" r="4.29" gradientTransform="matrix(1, 0, 0, 1, 0, 0)" xlink:href="#radial-gradient"/><radialGradient id="radial-gradient-6" cx="292.81" cy="136.56" r="11.45" gradientTransform="matrix(1, 0, 0, 1, 0, 0)" xlink:href="#radial-gradient"/><radialGradient id="radial-gradient-7" cx="340.51" cy="123.26" r="11.45" gradientTransform="matrix(1, 0, 0, 1, 0, 0)" xlink:href="#radial-gradient"/></defs><g id="Layer_2" data-name="Layer 2"><g id="Layer_1-2" data-name="Layer 1"><rect class="cls-1" x="0.92" width="596.18" height="615.44"/><path class="cls-2" d="M431.08,3.67V1.84H205.45V0H0V614.53H205.45v-4.59H417.24v3.67H593.43V3.67ZM205.45,528.31V83.47H417.24V528.31Z"/><polygon class="cls-2" points="150.68 578.37 150.68 578.53 150.36 578.53 150.68 578.37"/><path class="cls-3" d="M92.79,40.85l-.32.85V41H62.83V606.23H92.47V606l.14.28,57.75-27.74.32-.16,25.61-12.31,14.4-487.81ZM121,560.66,92.47,574.4V470.13L121,461Zm0-126.33-28.57,9.12V233.7l28.29,14.86Zm0-216.28L92.47,206.21V69.63L121,80.55Zm55.05,316.16-25.41,12.21V451.55l25.41-8.1Zm0-117.42-25.41,8.1v-167l25.41,10.54Zm0-175.89-25.41-10.54V91.89l25.41,9.69Z"/><polygon class="cls-4" points="176.09 443.45 176.09 534.21 150.68 546.42 150.68 451.55 176.09 443.45"/><polygon class="cls-4" points="121.04 461.02 121.04 560.66 92.47 574.39 92.47 470.13 121.04 461.02"/><polygon class="cls-4" points="176.09 268.39 176.09 416.79 150.68 424.89 150.68 257.85 176.09 268.39"/><polygon class="cls-4" points="120.76 248.56 121.04 434.33 92.47 443.45 92.47 233.7 120.76 248.56"/><polygon class="cls-4" points="176.09 101.58 176.09 240.9 150.68 230.35 150.68 91.89 176.09 101.58"/><polygon class="cls-4" points="121.04 80.55 121.04 218.05 92.47 206.21 92.47 69.63 121.04 80.55"/><rect class="cls-5" x="62.83" y="40.97" width="24.34" height="565.25"/><polygon class="cls-2" points="472.82 578.37 472.82 578.53 473.15 578.53 472.82 578.37"/><path class="cls-3" d="M531,41v.73l-.33-.85L428.12,80l19.29,430.78V443.45l25.41,8.1v94.87l-24.34-11.7,1.46,32.65h0l22.88,11,.33.16,57.75,27.74L531,606v.24h29.63V41ZM472.82,424.89l-25.41-8.1V268.39l25.41-10.54Zm0-194.53L447.41,240.9V101.58l25.41-9.69ZM531,574.4l-28.58-13.74V461L531,470.13Zm0-130.95-28.58-9.12V245.54L531,233.7Zm0-237.24-28.58,11.84V80.55L531,69.63Z"/><polygon class="cls-4" points="472.82 451.55 472.82 546.42 448.48 534.72 447.41 534.21 447.41 443.45 472.82 451.55"/><polygon class="cls-4" points="502.46 461.02 502.46 560.66 531.04 574.39 531.04 470.13 502.46 461.02"/><polygon class="cls-4" points="447.41 268.39 447.41 416.79 472.82 424.89 472.82 257.85 447.41 268.39"/><polygon class="cls-4" points="502.46 245.54 502.46 434.33 531.04 443.45 531.04 233.7 502.46 245.54"/><polygon class="cls-4" points="447.41 101.58 447.41 240.9 472.82 230.35 472.82 91.89 447.41 101.58"/><polygon class="cls-4" points="502.46 80.55 502.46 218.05 531.04 206.21 531.04 69.63 502.46 80.55"/><rect class="cls-5" x="536.34" y="40.97" width="24.34" height="565.25" transform="translate(1097.01 647.18) rotate(-180)"/><rect class="cls-5" x="205.73" y="528.77" width="212.04" height="23.28"/><polygon class="cls-5" points="448.48 534.72 447.41 534.21 447.41 510.82 448.48 534.72"/><polygon class="cls-5" points="449.94 567.37 418.05 552.05 417.77 552.05 417.77 108.87 206.43 108.87 206.03 84.11 417.77 85.59 417.77 84.89 417.47 84.11 428.12 80.04 447.41 510.82 447.41 534.21 448.48 534.72 449.94 567.37"/><polygon class="cls-5" points="190.69 78.25 206.03 84.11 205.73 84.89 205.73 552.05 205.45 552.05 176.29 566.06 190.69 78.25"/><rect class="cls-5" x="205.73" y="528.77" width="212.04" height="23.28"/><polygon class="cls-5" points="193.53 108.23 213.4 108.23 207.59 84.08 193.53 79.19 193.53 108.23"/><ellipse class="cls-6" cx="298.55" cy="304.51" rx="27.97" ry="25.68"/><rect class="cls-7" x="231.75" y="118.84" width="13.27" height="11.8"/><rect class="cls-8" x="214.79" y="146.82" width="13.27" height="11.8"/><rect class="cls-9" x="363.9" y="122.49" width="9.06" height="8.06"/><rect class="cls-10" x="384.08" y="146.34" width="9.06" height="8.06"/><rect class="cls-11" x="278.83" y="128.41" width="27.97" height="16.3"/><rect class="cls-12" x="326.52" y="115.11" width="27.97" height="16.3"/></g></g></svg>